solid ASCII
  facet normal -9.914449e-01 -1.305262e-01 1.847656e-14
    outer loop
      vertex   -8.000270e+02 6.461829e+01 3.158300e+02
      vertex   -8.000270e+02 6.461829e+01 3.098300e+02
      vertex   -7.999588e+02 6.410065e+01 3.158300e+02
    endloop
  endfacet
  facet normal -9.914449e-01 -1.305262e-01 1.878571e-14
    outer loop
      vertex   -7.999588e+02 6.410065e+01 3.158300e+02
      vertex   -8.000270e+02 6.461829e+01 3.098300e+02
      vertex   -7.999588e+02 6.410065e+01 3.098300e+02
    endloop
  endfacet
  facet normal -9.914449e-01 1.305262e-01 1.878571e-14
    outer loop
      vertex   -7.999588e+02 6.410065e+01 3.158300e+02
      vertex   -7.999588e+02 6.410065e+01 3.098300e+02
      vertex   -8.000270e+02 6.358302e+01 3.158300e+02
    endloop
  endfacet
  facet normal -9.914449e-01 1.305262e-01 1.894028e-14
    outer loop
      vertex   -8.000270e+02 6.358302e+01 3.158300e+02
      vertex   -7.999588e+02 6.410065e+01 3.098300e+02
      vertex   -8.000270e+02 6.358302e+01 3.098300e+02
    endloop
  endfacet
  facet normal -9.238795e-01 3.826834e-01 1.795868e-14
    outer loop
      vertex   -8.000270e+02 6.358302e+01 3.158300e+02
      vertex   -8.000270e+02 6.358302e+01 3.098300e+02
      vertex   -8.002268e+02 6.310065e+01 3.158300e+02
    endloop
  endfacet
  facet normal -9.238795e-01 3.826834e-01 1.795868e-14
    outer loop
      vertex   -8.002268e+02 6.310065e+01 3.158300e+02
      vertex   -8.000270e+02 6.358302e+01 3.098300e+02
      vertex   -8.002268e+02 6.310065e+01 3.098300e+02
    endloop
  endfacet
  facet normal -7.933533e-01 6.087614e-01 1.575322e-14
    outer loop
      vertex   -8.002268e+02 6.310065e+01 3.158300e+02
      vertex   -8.002268e+02 6.310065e+01 3.098300e+02
      vertex   -8.005446e+02 6.268644e+01 3.158300e+02
    endloop
  endfacet
  facet normal -7.933533e-01 6.087614e-01 1.575322e-14
    outer loop
      vertex   -8.005446e+02 6.268644e+01 3.158300e+02
      vertex   -8.002268e+02 6.310065e+01 3.098300e+02
      vertex   -8.005446e+02 6.268644e+01 3.098300e+02
    endloop
  endfacet
  facet normal -6.087614e-01 7.933533e-01 1.247421e-14
    outer loop
      vertex   -8.005446e+02 6.268644e+01 3.158300e+02
      vertex   -8.005446e+02 6.268644e+01 3.098300e+02
      vertex   -8.009588e+02 6.236860e+01 3.158300e+02
    endloop
  endfacet
  facet normal -6.087614e-01 7.933533e-01 2.494843e-14
    outer loop
      vertex   -8.009588e+02 6.236860e+01 3.158300e+02
      vertex   -8.005446e+02 6.268644e+01 3.098300e+02
      vertex   -8.009588e+02 6.236860e+01 3.098300e+02
    endloop
  endfacet
  facet normal -3.826834e-01 9.238795e-01 1.669021e-14
    outer loop
      vertex   -8.009588e+02 6.236860e+01 3.158300e+02
      vertex   -8.009588e+02 6.236860e+01 3.098300e+02
      vertex   -8.014412e+02 6.216880e+01 3.158300e+02
    endloop
  endfacet
  facet normal -3.826834e-01 9.238795e-01 8.345105e-15
    outer loop
      vertex   -8.014412e+02 6.216880e+01 3.158300e+02
      vertex   -8.009588e+02 6.236860e+01 3.098300e+02
      vertex   -8.014412e+02 6.216880e+01 3.098300e+02
    endloop
  endfacet
  facet normal -1.305262e-01 9.914449e-01 3.647292e-15
    outer loop
      vertex   -8.014412e+02 6.216880e+01 3.158300e+02
      vertex   -8.014412e+02 6.216880e+01 3.098300e+02
      vertex   -8.019588e+02 6.210065e+01 3.158300e+02
    endloop
  endfacet
  facet normal -1.305262e-01 9.914449e-01 3.647292e-15
    outer loop
      vertex   -8.019588e+02 6.210065e+01 3.158300e+02
      vertex   -8.014412e+02 6.216880e+01 3.098300e+02
      vertex   -8.019588e+02 6.210065e+01 3.098300e+02
    endloop
  endfacet
  facet normal 1.305262e-01 9.914449e-01 -1.299078e-15
    outer loop
      vertex   -8.019588e+02 6.210065e+01 3.158300e+02
      vertex   -8.019588e+02 6.210065e+01 3.098300e+02
      vertex   -8.024765e+02 6.216880e+01 3.158300e+02
    endloop
  endfacet
  facet normal 1.305262e-01 9.914449e-01 -3.772263e-15
    outer loop
      vertex   -8.024765e+02 6.216880e+01 3.158300e+02
      vertex   -8.019588e+02 6.210065e+01 3.098300e+02
      vertex   -8.024765e+02 6.216880e+01 3.098300e+02
    endloop
  endfacet
  facet normal 3.826834e-01 9.238795e-01 -1.340793e-14
    outer loop
      vertex   -8.024765e+02 6.216880e+01 3.158300e+02
      vertex   -8.024765e+02 6.216880e+01 3.098300e+02
      vertex   -8.029588e+02 6.236860e+01 3.158300e+02
    endloop
  endfacet
  facet normal 3.826834e-01 9.238795e-01 -5.062825e-15
    outer loop
      vertex   -8.029588e+02 6.236860e+01 3.158300e+02
      vertex   -8.024765e+02 6.216880e+01 3.098300e+02
      vertex   -8.029588e+02 6.236860e+01 3.098300e+02
    endloop
  endfacet
  facet normal 6.087614e-01 7.933533e-01 -9.655655e-15
    outer loop
      vertex   -8.029588e+02 6.236860e+01 3.158300e+02
      vertex   -8.029588e+02 6.236860e+01 3.098300e+02
      vertex   -8.033730e+02 6.268644e+01 3.158300e+02
    endloop
  endfacet
  facet normal 6.087614e-01 7.933533e-01 -1.059517e-14
    outer loop
      vertex   -8.033730e+02 6.268644e+01 3.158300e+02
      vertex   -8.029588e+02 6.236860e+01 3.098300e+02
      vertex   -8.033730e+02 6.268644e+01 3.098300e+02
    endloop
  endfacet
  facet normal 7.933533e-01 6.087614e-01 -1.431139e-14
    outer loop
      vertex   -8.033730e+02 6.268644e+01 3.158300e+02
      vertex   -8.033730e+02 6.268644e+01 3.098300e+02
      vertex   -8.036909e+02 6.310065e+01 3.158300e+02
    endloop
  endfacet
  facet normal 7.933533e-01 6.087614e-01 -1.431139e-14
    outer loop
      vertex   -8.036909e+02 6.310065e+01 3.158300e+02
      vertex   -8.033730e+02 6.268644e+01 3.098300e+02
      vertex   -8.036909e+02 6.310065e+01 3.098300e+02
    endloop
  endfacet
  facet normal 9.238795e-01 3.826834e-01 -1.705230e-14
    outer loop
      vertex   -8.036909e+02 6.310065e+01 3.158300e+02
      vertex   -8.036909e+02 6.310065e+01 3.098300e+02
      vertex   -8.038907e+02 6.358302e+01 3.158300e+02
    endloop
  endfacet
  facet normal 9.238795e-01 3.826834e-01 -1.705230e-14
    outer loop
      vertex   -8.038907e+02 6.358302e+01 3.158300e+02
      vertex   -8.036909e+02 6.310065e+01 3.098300e+02
      vertex   -8.038907e+02 6.358302e+01 3.098300e+02
    endloop
  endfacet
  facet normal 9.914449e-01 1.305262e-01 -1.863113e-14
    outer loop
      vertex   -8.038907e+02 6.358302e+01 3.158300e+02
      vertex   -8.038907e+02 6.358302e+01 3.098300e+02
      vertex   -8.039588e+02 6.410065e+01 3.158300e+02
    endloop
  endfacet
  facet normal 9.914449e-01 1.305262e-01 -1.878571e-14
    outer loop
      vertex   -8.039588e+02 6.410065e+01 3.158300e+02
      vertex   -8.038907e+02 6.358302e+01 3.098300e+02
      vertex   -8.039588e+02 6.410065e+01 3.098300e+02
    endloop
  endfacet
  facet normal 9.914449e-01 -1.305262e-01 -1.878571e-14
    outer loop
      vertex   -8.039588e+02 6.410065e+01 3.158300e+02
      vertex   -8.039588e+02 6.410065e+01 3.098300e+02
      vertex   -8.038907e+02 6.461829e+01 3.158300e+02
    endloop
  endfacet
  facet normal 9.914449e-01 -1.305262e-01 -1.909485e-14
    outer loop
      vertex   -8.038907e+02 6.461829e+01 3.158300e+02
      vertex   -8.039588e+02 6.410065e+01 3.098300e+02
      vertex   -8.038907e+02 6.461829e+01 3.098300e+02
    endloop
  endfacet
  facet normal 9.238795e-01 -3.826834e-01 -1.841187e-14
    outer loop
      vertex   -8.038907e+02 6.461829e+01 3.158300e+02
      vertex   -8.038907e+02 6.461829e+01 3.098300e+02
      vertex   -8.036909e+02 6.510065e+01 3.158300e+02
    endloop
  endfacet
  facet normal 9.238795e-01 -3.826834e-01 -1.750549e-14
    outer loop
      vertex   -8.036909e+02 6.510065e+01 3.158300e+02
      vertex   -8.038907e+02 6.461829e+01 3.098300e+02
      vertex   -8.036909e+02 6.510065e+01 3.098300e+02
    endloop
  endfacet
  facet normal 7.933533e-01 -6.087614e-01 -1.503231e-14
    outer loop
      vertex   -8.036909e+02 6.510065e+01 3.158300e+02
      vertex   -8.036909e+02 6.510065e+01 3.098300e+02
      vertex   -8.033730e+02 6.551487e+01 3.158300e+02
    endloop
  endfacet
  facet normal 7.933533e-01 -6.087614e-01 -1.503231e-14
    outer loop
      vertex   -8.033730e+02 6.551487e+01 3.158300e+02
      vertex   -8.036909e+02 6.510065e+01 3.098300e+02
      vertex   -8.033730e+02 6.551487e+01 3.098300e+02
    endloop
  endfacet
  facet normal 6.087614e-01 -7.933533e-01 -1.153469e-14
    outer loop
      vertex   -8.033730e+02 6.551487e+01 3.158300e+02
      vertex   -8.033730e+02 6.551487e+01 3.098300e+02
      vertex   -8.029588e+02 6.583270e+01 3.158300e+02
    endloop
  endfacet
  facet normal 6.087614e-01 -7.933533e-01 -1.341373e-14
    outer loop
      vertex   -8.029588e+02 6.583270e+01 3.158300e+02
      vertex   -8.033730e+02 6.551487e+01 3.098300e+02
      vertex   -8.029588e+02 6.583270e+01 3.098300e+02
    endloop
  endfacet
  facet normal 3.826834e-01 -9.238795e-01 -9.439198e-15
    outer loop
      vertex   -8.029588e+02 6.583270e+01 3.158300e+02
      vertex   -8.029588e+02 6.583270e+01 3.098300e+02
      vertex   -8.024765e+02 6.603250e+01 3.158300e+02
    endloop
  endfacet
  facet normal 3.826834e-01 -9.238795e-01 -1.450202e-14
    outer loop
      vertex   -8.024765e+02 6.603250e+01 3.158300e+02
      vertex   -8.029588e+02 6.583270e+01 3.098300e+02
      vertex   -8.024765e+02 6.603250e+01 3.098300e+02
    endloop
  endfacet
  facet normal 1.305262e-01 -9.914449e-01 -4.946370e-15
    outer loop
      vertex   -8.024765e+02 6.603250e+01 3.158300e+02
      vertex   -8.024765e+02 6.603250e+01 3.098300e+02
      vertex   -8.019588e+02 6.610065e+01 3.158300e+02
    endloop
  endfacet
  facet normal 1.305262e-01 -9.914449e-01 -2.473185e-15
    outer loop
      vertex   -8.019588e+02 6.610065e+01 3.158300e+02
      vertex   -8.024765e+02 6.603250e+01 3.098300e+02
      vertex   -8.019588e+02 6.610065e+01 3.098300e+02
    endloop
  endfacet
  facet normal -1.305262e-01 -9.914449e-01 2.473185e-15
    outer loop
      vertex   -8.019588e+02 6.610065e+01 3.158300e+02
      vertex   -8.019588e+02 6.610065e+01 3.098300e+02
      vertex   -8.014412e+02 6.603250e+01 3.158300e+02
    endloop
  endfacet
  facet normal -1.305262e-01 -9.914449e-01 2.473185e-15
    outer loop
      vertex   -8.014412e+02 6.603250e+01 3.158300e+02
      vertex   -8.019588e+02 6.610065e+01 3.098300e+02
      vertex   -8.014412e+02 6.603250e+01 3.098300e+02
    endloop
  endfacet
  facet normal -3.826834e-01 -9.238795e-01 7.251012e-15
    outer loop
      vertex   -8.014412e+02 6.603250e+01 3.158300e+02
      vertex   -8.014412e+02 6.603250e+01 3.098300e+02
      vertex   -8.009588e+02 6.583270e+01 3.158300e+02
    endloop
  endfacet
  facet normal -3.826834e-01 -9.238795e-01 5.062825e-15
    outer loop
      vertex   -8.009588e+02 6.583270e+01 3.158300e+02
      vertex   -8.014412e+02 6.603250e+01 3.098300e+02
      vertex   -8.009588e+02 6.583270e+01 3.098300e+02
    endloop
  endfacet
  facet normal -6.087614e-01 -7.933533e-01 9.655655e-15
    outer loop
      vertex   -8.009588e+02 6.583270e+01 3.158300e+02
      vertex   -8.009588e+02 6.583270e+01 3.098300e+02
      vertex   -8.005446e+02 6.551487e+01 3.158300e+02
    endloop
  endfacet
  facet normal -6.087614e-01 -7.933533e-01 1.153469e-14
    outer loop
      vertex   -8.005446e+02 6.551487e+01 3.158300e+02
      vertex   -8.009588e+02 6.583270e+01 3.098300e+02
      vertex   -8.005446e+02 6.551487e+01 3.098300e+02
    endloop
  endfacet
  facet normal -7.933533e-01 -6.087614e-01 1.503231e-14
    outer loop
      vertex   -8.005446e+02 6.551487e+01 3.158300e+02
      vertex   -8.005446e+02 6.551487e+01 3.098300e+02
      vertex   -8.002268e+02 6.510065e+01 3.158300e+02
    endloop
  endfacet
  facet normal -7.933533e-01 -6.087614e-01 1.503231e-14
    outer loop
      vertex   -8.002268e+02 6.510065e+01 3.158300e+02
      vertex   -8.005446e+02 6.551487e+01 3.098300e+02
      vertex   -8.002268e+02 6.510065e+01 3.098300e+02
    endloop
  endfacet
  facet normal -9.238795e-01 -3.826834e-01 1.750549e-14
    outer loop
      vertex   -8.002268e+02 6.510065e+01 3.158300e+02
      vertex   -8.002268e+02 6.510065e+01 3.098300e+02
      vertex   -8.000270e+02 6.461829e+01 3.158300e+02
    endloop
  endfacet
  facet normal -9.238795e-01 -3.826834e-01 1.659911e-14
    outer loop
      vertex   -8.000270e+02 6.461829e+01 3.158300e+02
      vertex   -8.002268e+02 6.510065e+01 3.098300e+02
      vertex   -8.000270e+02 6.461829e+01 3.098300e+02
    endloop
  endfacet
  facet normal -9.945219e-01 -1.045285e-01 1.872022e-14
    outer loop
      vertex   -7.642257e+02 3.477107e+01 3.158300e+02
      vertex   -7.642257e+02 3.477107e+01 3.098300e+02
      vertex   -7.641558e+02 3.410575e+01 3.158300e+02
    endloop
  endfacet
  facet normal -9.945219e-01 -1.045285e-01 3.756423e-14
    outer loop
      vertex   -7.641558e+02 3.410575e+01 3.158300e+02
      vertex   -7.642257e+02 3.477107e+01 3.098300e+02
      vertex   -7.641558e+02 3.410575e+01 3.098300e+02
    endloop
  endfacet
  facet normal -9.945219e-01 1.045285e-01 3.781180e-14
    outer loop
      vertex   -7.641558e+02 3.410575e+01 3.158300e+02
      vertex   -7.641558e+02 3.410575e+01 3.098300e+02
      vertex   -7.642257e+02 3.344043e+01 3.158300e+02
    endloop
  endfacet
  facet normal -9.945219e-01 1.045285e-01 1.909158e-14
    outer loop
      vertex   -7.642257e+02 3.344043e+01 3.158300e+02
      vertex   -7.641558e+02 3.410575e+01 3.098300e+02
      vertex   -7.642257e+02 3.344043e+01 3.098300e+02
    endloop
  endfacet
  facet normal -9.510565e-01 3.090170e-01 1.875233e-14
    outer loop
      vertex   -7.642257e+02 3.344043e+01 3.158300e+02
      vertex   -7.642257e+02 3.344043e+01 3.098300e+02
      vertex   -7.644324e+02 3.280419e+01 3.158300e+02
    endloop
  endfacet
  facet normal -9.510565e-01 3.090170e-01 1.838638e-14
    outer loop
      vertex   -7.644324e+02 3.280419e+01 3.158300e+02
      vertex   -7.642257e+02 3.344043e+01 3.098300e+02
      vertex   -7.644324e+02 3.280419e+01 3.098300e+02
    endloop
  endfacet
  facet normal -8.660254e-01 5.000000e-01 1.700140e-14
    outer loop
      vertex   -7.644324e+02 3.280419e+01 3.158300e+02
      vertex   -7.644324e+02 3.280419e+01 3.098300e+02
      vertex   -7.647669e+02 3.222484e+01 3.158300e+02
    endloop
  endfacet
  facet normal -8.660254e-01 5.000000e-01 3.341068e-14
    outer loop
      vertex   -7.647669e+02 3.222484e+01 3.158300e+02
      vertex   -7.644324e+02 3.280419e+01 3.098300e+02
      vertex   -7.647669e+02 3.222484e+01 3.098300e+02
    endloop
  endfacet
  facet normal -7.431448e-01 6.691306e-01 2.895434e-14
    outer loop
      vertex   -7.647669e+02 3.222484e+01 3.158300e+02
      vertex   -7.647669e+02 3.222484e+01 3.098300e+02
      vertex   -7.652146e+02 3.172769e+01 3.158300e+02
    endloop
  endfacet
  facet normal -7.431448e-01 6.691306e-01 1.526958e-14
    outer loop
      vertex   -7.652146e+02 3.172769e+01 3.158300e+02
      vertex   -7.647669e+02 3.222484e+01 3.098300e+02
      vertex   -7.652146e+02 3.172769e+01 3.098300e+02
    endloop
  endfacet
  facet normal -5.877853e-01 8.090170e-01 1.257434e-14
    outer loop
      vertex   -7.652146e+02 3.172769e+01 3.158300e+02
      vertex   -7.652146e+02 3.172769e+01 3.098300e+02
      vertex   -7.657558e+02 3.133447e+01 3.158300e+02
    endloop
  endfacet
  facet normal -5.877853e-01 8.090170e-01 1.209531e-14
    outer loop
      vertex   -7.657558e+02 3.133447e+01 3.158300e+02
      vertex   -7.652146e+02 3.172769e+01 3.098300e+02
      vertex   -7.657558e+02 3.133447e+01 3.098300e+02
    endloop
  endfacet
  facet normal -4.067366e-01 9.135455e-01 8.788622e-15
    outer loop
      vertex   -7.657558e+02 3.133447e+01 3.158300e+02
      vertex   -7.657558e+02 3.133447e+01 3.098300e+02
      vertex   -7.663669e+02 3.106237e+01 3.158300e+02
    endloop
  endfacet
  facet normal -4.067366e-01 9.135455e-01 8.788622e-15
    outer loop
      vertex   -7.663669e+02 3.106237e+01 3.158300e+02
      vertex   -7.657558e+02 3.133447e+01 3.098300e+02
      vertex   -7.663669e+02 3.106237e+01 3.098300e+02
    endloop
  endfacet
  facet normal -2.079117e-01 9.781476e-01 5.097830e-15
    outer loop
      vertex   -7.663669e+02 3.106237e+01 3.158300e+02
      vertex   -7.663669e+02 3.106237e+01 3.098300e+02
      vertex   -7.670213e+02 3.092328e+01 3.158300e+02
    endloop
  endfacet
  facet normal -2.079117e-01 9.781476e-01 5.677010e-15
    outer loop
      vertex   -7.670213e+02 3.092328e+01 3.158300e+02
      vertex   -7.663669e+02 3.106237e+01 3.098300e+02
      vertex   -7.670213e+02 3.092328e+01 3.098300e+02
    endloop
  endfacet
  facet normal 0.000000e+00 1.000000e+00 1.776357e-15
    outer loop
      vertex   -7.670213e+02 3.092328e+01 3.158300e+02
      vertex   -7.670213e+02 3.092328e+01 3.098300e+02
      vertex   -7.676903e+02 3.092328e+01 3.158300e+02
    endloop
  endfacet
  facet normal 0.000000e+00 1.000000e+00 1.776357e-15
    outer loop
      vertex   -7.676903e+02 3.092328e+01 3.158300e+02
      vertex   -7.670213e+02 3.092328e+01 3.098300e+02
      vertex   -7.676903e+02 3.092328e+01 3.098300e+02
    endloop
  endfacet
  facet normal 2.079117e-01 9.781476e-01 -2.201931e-15
    outer loop
      vertex   -7.676903e+02 3.092328e+01 3.158300e+02
      vertex   -7.676903e+02 3.092328e+01 3.098300e+02
      vertex   -7.683446e+02 3.106237e+01 3.158300e+02
    endloop
  endfacet
  facet normal 2.079117e-01 9.781476e-01 -6.720581e-15
    outer loop
      vertex   -7.683446e+02 3.106237e+01 3.158300e+02
      vertex   -7.676903e+02 3.092328e+01 3.098300e+02
      vertex   -7.683446e+02 3.106237e+01 3.098300e+02
    endloop
  endfacet
  facet normal 4.067366e-01 9.135455e-01 -1.433168e-14
    outer loop
      vertex   -7.683446e+02 3.106237e+01 3.158300e+02
      vertex   -7.683446e+02 3.106237e+01 3.098300e+02
      vertex   -7.689558e+02 3.133447e+01 3.158300e+02
    endloop
  endfacet
  facet normal 4.067366e-01 9.135455e-01 -6.624912e-15
    outer loop
      vertex   -7.689558e+02 3.133447e+01 3.158300e+02
      vertex   -7.683446e+02 3.106237e+01 3.098300e+02
      vertex   -7.689558e+02 3.133447e+01 3.098300e+02
    endloop
  endfacet
  facet normal 5.877853e-01 8.090170e-01 -1.017917e-14
    outer loop
      vertex   -7.689558e+02 3.133447e+01 3.158300e+02
      vertex   -7.689558e+02 3.133447e+01 3.098300e+02
      vertex   -7.694970e+02 3.172769e+01 3.158300e+02
    endloop
  endfacet
  facet normal 5.877853e-01 8.090170e-01 -9.700138e-15
    outer loop
      vertex   -7.694970e+02 3.172769e+01 3.158300e+02
      vertex   -7.689558e+02 3.133447e+01 3.098300e+02
      vertex   -7.694970e+02 3.172769e+01 3.098300e+02
    endloop
  endfacet
  facet normal 7.431448e-01 6.691306e-01 -1.289235e-14
    outer loop
      vertex   -7.694970e+02 3.172769e+01 3.158300e+02
      vertex   -7.694970e+02 3.172769e+01 3.098300e+02
      vertex   -7.699446e+02 3.222484e+01 3.158300e+02
    endloop
  endfacet
  facet normal 7.431448e-01 6.691306e-01 -1.328855e-14
    outer loop
      vertex   -7.699446e+02 3.222484e+01 3.158300e+02
      vertex   -7.694970e+02 3.172769e+01 3.098300e+02
      vertex   -7.699446e+02 3.222484e+01 3.098300e+02
    endloop
  endfacet
  facet normal 8.660254e-01 5.000000e-01 -1.581716e-14
    outer loop
      vertex   -7.699446e+02 3.222484e+01 3.158300e+02
      vertex   -7.699446e+02 3.222484e+01 3.098300e+02
      vertex   -7.702791e+02 3.280419e+01 3.158300e+02
    endloop
  endfacet
  facet normal 8.660254e-01 5.000000e-01 -1.581716e-14
    outer loop
      vertex   -7.702791e+02 3.280419e+01 3.158300e+02
      vertex   -7.699446e+02 3.222484e+01 3.098300e+02
      vertex   -7.702791e+02 3.280419e+01 3.098300e+02
    endloop
  endfacet
  facet normal 9.510565e-01 3.090170e-01 -1.765449e-14
    outer loop
      vertex   -7.702791e+02 3.280419e+01 3.158300e+02
      vertex   -7.702791e+02 3.280419e+01 3.098300e+02
      vertex   -7.704859e+02 3.344043e+01 3.158300e+02
    endloop
  endfacet
  facet normal 9.510565e-01 3.090170e-01 -1.728854e-14
    outer loop
      vertex   -7.704859e+02 3.344043e+01 3.158300e+02
      vertex   -7.702791e+02 3.280419e+01 3.098300e+02
      vertex   -7.704859e+02 3.344043e+01 3.098300e+02
    endloop
  endfacet
  facet normal 9.945219e-01 1.045285e-01 -1.859644e-14
    outer loop
      vertex   -7.704859e+02 3.344043e+01 3.158300e+02
      vertex   -7.704859e+02 3.344043e+01 3.098300e+02
      vertex   -7.705558e+02 3.410575e+01 3.158300e+02
    endloop
  endfacet
  facet normal 9.945219e-01 1.045285e-01 -3.756423e-14
    outer loop
      vertex   -7.705558e+02 3.410575e+01 3.158300e+02
      vertex   -7.704859e+02 3.344043e+01 3.098300e+02
      vertex   -7.705558e+02 3.410575e+01 3.098300e+02
    endloop
  endfacet
  facet normal 9.945219e-01 -1.045285e-01 -3.781180e-14
    outer loop
      vertex   -7.705558e+02 3.410575e+01 3.158300e+02
      vertex   -7.705558e+02 3.410575e+01 3.098300e+02
      vertex   -7.704859e+02 3.477107e+01 3.158300e+02
    endloop
  endfacet
  facet normal 9.945219e-01 -1.045285e-01 -1.896779e-14
    outer loop
      vertex   -7.704859e+02 3.477107e+01 3.158300e+02
      vertex   -7.705558e+02 3.410575e+01 3.098300e+02
      vertex   -7.704859e+02 3.477107e+01 3.098300e+02
    endloop
  endfacet
  facet normal 9.510565e-01 -3.090170e-01 -1.838638e-14
    outer loop
      vertex   -7.704859e+02 3.477107e+01 3.158300e+02
      vertex   -7.704859e+02 3.477107e+01 3.098300e+02
      vertex   -7.702791e+02 3.540731e+01 3.158300e+02
    endloop
  endfacet
  facet normal 9.510565e-01 -3.090170e-01 -1.838638e-14
    outer loop
      vertex   -7.702791e+02 3.540731e+01 3.158300e+02
      vertex   -7.704859e+02 3.477107e+01 3.098300e+02
      vertex   -7.702791e+02 3.540731e+01 3.098300e+02
    endloop
  endfacet
  facet normal 8.660254e-01 -5.000000e-01 -1.700140e-14
    outer loop
      vertex   -7.702791e+02 3.540731e+01 3.158300e+02
      vertex   -7.702791e+02 3.540731e+01 3.098300e+02
      vertex   -7.699446e+02 3.598666e+01 3.158300e+02
    endloop
  endfacet
  facet normal 8.660254e-01 -5.000000e-01 -1.700140e-14
    outer loop
      vertex   -7.699446e+02 3.598666e+01 3.158300e+02
      vertex   -7.702791e+02 3.540731e+01 3.098300e+02
      vertex   -7.699446e+02 3.598666e+01 3.098300e+02
    endloop
  endfacet
  facet normal 7.431448e-01 -6.691306e-01 -1.487337e-14
    outer loop
      vertex   -7.699446e+02 3.598666e+01 3.158300e+02
      vertex   -7.699446e+02 3.598666e+01 3.098300e+02
      vertex   -7.694970e+02 3.648382e+01 3.158300e+02
    endloop
  endfacet
  facet normal 7.431448e-01 -6.691306e-01 -1.487337e-14
    outer loop
      vertex   -7.694970e+02 3.648382e+01 3.158300e+02
      vertex   -7.699446e+02 3.598666e+01 3.098300e+02
      vertex   -7.694970e+02 3.648382e+01 3.098300e+02
    endloop
  endfacet
  facet normal 5.877853e-01 -8.090170e-01 -1.209531e-14
    outer loop
      vertex   -7.694970e+02 3.648382e+01 3.158300e+02
      vertex   -7.694970e+02 3.648382e+01 3.098300e+02
      vertex   -7.689558e+02 3.687703e+01 3.158300e+02
    endloop
  endfacet
  facet normal 5.877853e-01 -8.090170e-01 -1.209531e-14
    outer loop
      vertex   -7.689558e+02 3.687703e+01 3.158300e+02
      vertex   -7.694970e+02 3.648382e+01 3.098300e+02
      vertex   -7.689558e+02 3.687703e+01 3.098300e+02
    endloop
  endfacet
  facet normal 4.067366e-01 -9.135455e-01 -8.788622e-15
    outer loop
      vertex   -7.689558e+02 3.687703e+01 3.158300e+02
      vertex   -7.689558e+02 3.687703e+01 3.098300e+02
      vertex   -7.683446e+02 3.714913e+01 3.158300e+02
    endloop
  endfacet
  facet normal 4.067366e-01 -9.135455e-01 -1.649539e-14
    outer loop
      vertex   -7.683446e+02 3.714913e+01 3.158300e+02
      vertex   -7.689558e+02 3.687703e+01 3.098300e+02
      vertex   -7.683446e+02 3.714913e+01 3.098300e+02
    endloop
  endfacet
  facet normal 2.079117e-01 -9.781476e-01 -9.037300e-15
    outer loop
      vertex   -7.683446e+02 3.714913e+01 3.158300e+02
      vertex   -7.683446e+02 3.714913e+01 3.098300e+02
      vertex   -7.676903e+02 3.728822e+01 3.158300e+02
    endloop
  endfacet
  facet normal 2.079117e-01 -9.781476e-01 -5.097830e-15
    outer loop
      vertex   -7.676903e+02 3.728822e+01 3.158300e+02
      vertex   -7.683446e+02 3.714913e+01 3.098300e+02
      vertex   -7.676903e+02 3.728822e+01 3.098300e+02
    endloop
  endfacet
  facet normal 0.000000e+00 -1.000000e+00 -1.184238e-15
    outer loop
      vertex   -7.676903e+02 3.728822e+01 3.158300e+02
      vertex   -7.676903e+02 3.728822e+01 3.098300e+02
      vertex   -7.670213e+02 3.728822e+01 3.158300e+02
    endloop
  endfacet
  facet normal 0.000000e+00 -1.000000e+00 -1.184238e-15
    outer loop
      vertex   -7.670213e+02 3.728822e+01 3.158300e+02
      vertex   -7.676903e+02 3.728822e+01 3.098300e+02
      vertex   -7.670213e+02 3.728822e+01 3.098300e+02
    endloop
  endfacet
  facet normal -2.079117e-01 -9.781476e-01 2.781111e-15
    outer loop
      vertex   -7.670213e+02 3.728822e+01 3.158300e+02
      vertex   -7.670213e+02 3.728822e+01 3.098300e+02
      vertex   -7.663669e+02 3.714913e+01 3.158300e+02
    endloop
  endfacet
  facet normal -2.079117e-01 -9.781476e-01 2.781111e-15
    outer loop
      vertex   -7.663669e+02 3.714913e+01 3.158300e+02
      vertex   -7.670213e+02 3.728822e+01 3.098300e+02
      vertex   -7.663669e+02 3.714913e+01 3.098300e+02
    endloop
  endfacet
  facet normal -4.067366e-01 -9.135455e-01 6.624912e-15
    outer loop
      vertex   -7.663669e+02 3.714913e+01 3.158300e+02
      vertex   -7.663669e+02 3.714913e+01 3.098300e+02
      vertex   -7.657558e+02 3.687703e+01 3.158300e+02
    endloop
  endfacet
  facet normal -4.067366e-01 -9.135455e-01 6.624912e-15
    outer loop
      vertex   -7.657558e+02 3.687703e+01 3.158300e+02
      vertex   -7.663669e+02 3.714913e+01 3.098300e+02
      vertex   -7.657558e+02 3.687703e+01 3.098300e+02
    endloop
  endfacet
  facet normal -5.877853e-01 -8.090170e-01 1.017917e-14
    outer loop
      vertex   -7.657558e+02 3.687703e+01 3.158300e+02
      vertex   -7.657558e+02 3.687703e+01 3.098300e+02
      vertex   -7.652146e+02 3.648382e+01 3.158300e+02
    endloop
  endfacet
  facet normal -5.877853e-01 -8.090170e-01 1.017917e-14
    outer loop
      vertex   -7.652146e+02 3.648382e+01 3.158300e+02
      vertex   -7.657558e+02 3.687703e+01 3.098300e+02
      vertex   -7.652146e+02 3.648382e+01 3.098300e+02
    endloop
  endfacet
  facet normal -7.431448e-01 -6.691306e-01 1.328855e-14
    outer loop
      vertex   -7.652146e+02 3.648382e+01 3.158300e+02
      vertex   -7.652146e+02 3.648382e+01 3.098300e+02
      vertex   -7.647669e+02 3.598666e+01 3.158300e+02
    endloop
  endfacet
  facet normal -7.431448e-01 -6.691306e-01 2.736952e-14
    outer loop
      vertex   -7.647669e+02 3.598666e+01 3.158300e+02
      vertex   -7.652146e+02 3.648382e+01 3.098300e+02
      vertex   -7.647669e+02 3.598666e+01 3.098300e+02
    endloop
  endfacet
  facet normal -8.660254e-01 -5.000000e-01 3.222644e-14
    outer loop
      vertex   -7.647669e+02 3.598666e+01 3.158300e+02
      vertex   -7.647669e+02 3.598666e+01 3.098300e+02
      vertex   -7.644324e+02 3.540731e+01 3.158300e+02
    endloop
  endfacet
  facet normal -8.660254e-01 -5.000000e-01 1.581716e-14
    outer loop
      vertex   -7.644324e+02 3.540731e+01 3.158300e+02
      vertex   -7.647669e+02 3.598666e+01 3.098300e+02
      vertex   -7.644324e+02 3.540731e+01 3.098300e+02
    endloop
  endfacet
  facet normal -9.510565e-01 -3.090170e-01 1.765449e-14
    outer loop
      vertex   -7.644324e+02 3.540731e+01 3.158300e+02
      vertex   -7.644324e+02 3.540731e+01 3.098300e+02
      vertex   -7.642257e+02 3.477107e+01 3.158300e+02
    endloop
  endfacet
  facet normal -9.510565e-01 -3.090170e-01 1.765449e-14
    outer loop
      vertex   -7.642257e+02 3.477107e+01 3.158300e+02
      vertex   -7.644324e+02 3.540731e+01 3.098300e+02
      vertex   -7.642257e+02 3.477107e+01 3.098300e+02
    endloop
  endfacet
  facet normal -9.945219e-01 -1.045285e-01 1.868928e-14
    outer loop
      vertex   -7.642106e+02 1.470299e+01 3.158300e+02
      vertex   -7.642106e+02 1.470299e+01 3.098300e+02
      vertex   -7.641407e+02 1.403767e+01 3.158300e+02
    endloop
  endfacet
  facet normal -9.945219e-01 -1.045285e-01 1.872022e-14
    outer loop
      vertex   -7.641407e+02 1.403767e+01 3.158300e+02
      vertex   -7.642106e+02 1.470299e+01 3.098300e+02
      vertex   -7.641407e+02 1.403767e+01 3.098300e+02
    endloop
  endfacet
  facet normal -9.945219e-01 1.045285e-01 1.896779e-14
    outer loop
      vertex   -7.641407e+02 1.403767e+01 3.158300e+02
      vertex   -7.641407e+02 1.403767e+01 3.098300e+02
      vertex   -7.642106e+02 1.337235e+01 3.158300e+02
    endloop
  endfacet
  facet normal -9.945219e-01 1.045285e-01 1.899874e-14
    outer loop
      vertex   -7.642106e+02 1.337235e+01 3.158300e+02
      vertex   -7.641407e+02 1.403767e+01 3.098300e+02
      vertex   -7.642106e+02 1.337235e+01 3.098300e+02
    endloop
  endfacet
  facet normal -9.510565e-01 3.090170e-01 1.847787e-14
    outer loop
      vertex   -7.642106e+02 1.337235e+01 3.158300e+02
      vertex   -7.642106e+02 1.337235e+01 3.098300e+02
      vertex   -7.644173e+02 1.273611e+01 3.158300e+02
    endloop
  endfacet
  facet normal -9.510565e-01 3.090170e-01 1.847787e-14
    outer loop
      vertex   -7.644173e+02 1.273611e+01 3.158300e+02
      vertex   -7.642106e+02 1.337235e+01 3.098300e+02
      vertex   -7.644173e+02 1.273611e+01 3.098300e+02
    endloop
  endfacet
  facet normal -8.660254e-01 5.000000e-01 1.714943e-14
    outer loop
      vertex   -7.644173e+02 1.273611e+01 3.158300e+02
      vertex   -7.644173e+02 1.273611e+01 3.098300e+02
      vertex   -7.647518e+02 1.215676e+01 3.158300e+02
    endloop
  endfacet
  facet normal -8.660254e-01 5.000000e-01 3.355871e-14
    outer loop
      vertex   -7.647518e+02 1.215676e+01 3.158300e+02
      vertex   -7.644173e+02 1.273611e+01 3.098300e+02
      vertex   -7.647518e+02 1.215676e+01 3.098300e+02
    endloop
  endfacet
  facet normal -7.431448e-01 6.691306e-01 2.915244e-14
    outer loop
      vertex   -7.647518e+02 1.215676e+01 3.158300e+02
      vertex   -7.647518e+02 1.215676e+01 3.098300e+02
      vertex   -7.651995e+02 1.165961e+01 3.158300e+02
    endloop
  endfacet
  facet normal -7.431448e-01 6.691306e-01 2.915244e-14
    outer loop
      vertex   -7.651995e+02 1.165961e+01 3.158300e+02
      vertex   -7.647518e+02 1.215676e+01 3.098300e+02
      vertex   -7.651995e+02 1.165961e+01 3.098300e+02
    endloop
  endfacet
  facet normal -5.877853e-01 8.090170e-01 2.347207e-14
    outer loop
      vertex   -7.651995e+02 1.165961e+01 3.158300e+02
      vertex   -7.651995e+02 1.165961e+01 3.098300e+02
      vertex   -7.657407e+02 1.126639e+01 3.158300e+02
    endloop
  endfacet
  facet normal -5.877853e-01 8.090170e-01 1.233483e-14
    outer loop
      vertex   -7.657407e+02 1.126639e+01 3.158300e+02
      vertex   -7.651995e+02 1.165961e+01 3.098300e+02
      vertex   -7.657407e+02 1.126639e+01 3.098300e+02
    endloop
  endfacet
  facet normal -4.067366e-01 9.135455e-01 9.059086e-15
    outer loop
      vertex   -7.657407e+02 1.126639e+01 3.158300e+02
      vertex   -7.657407e+02 1.126639e+01 3.098300e+02
      vertex   -7.663518e+02 1.099429e+01 3.158300e+02
    endloop
  endfacet
  facet normal -4.067366e-01 9.135455e-01 9.059086e-15
    outer loop
      vertex   -7.663518e+02 1.099429e+01 3.158300e+02
      vertex   -7.657407e+02 1.126639e+01 3.098300e+02
      vertex   -7.663518e+02 1.099429e+01 3.098300e+02
    endloop
  endfacet
  facet normal -2.079117e-01 9.781476e-01 5.387420e-15
    outer loop
      vertex   -7.663518e+02 1.099429e+01 3.158300e+02
      vertex   -7.663518e+02 1.099429e+01 3.098300e+02
      vertex   -7.670062e+02 1.085520e+01 3.158300e+02
    endloop
  endfacet
  facet normal -2.079117e-01 9.781476e-01 5.387420e-15
    outer loop
      vertex   -7.670062e+02 1.085520e+01 3.158300e+02
      vertex   -7.663518e+02 1.099429e+01 3.098300e+02
      vertex   -7.670062e+02 1.085520e+01 3.098300e+02
    endloop
  endfacet
  facet normal 0.000000e+00 1.000000e+00 1.480297e-15
    outer loop
      vertex   -7.670062e+02 1.085520e+01 3.158300e+02
      vertex   -7.670062e+02 1.085520e+01 3.098300e+02
      vertex   -7.676752e+02 1.085520e+01 3.158300e+02
    endloop
  endfacet
  facet normal 0.000000e+00 1.000000e+00 1.480297e-15
    outer loop
      vertex   -7.676752e+02 1.085520e+01 3.158300e+02
      vertex   -7.670062e+02 1.085520e+01 3.098300e+02
      vertex   -7.676752e+02 1.085520e+01 3.098300e+02
    endloop
  endfacet
  facet normal 2.079117e-01 9.781476e-01 -2.491521e-15
    outer loop
      vertex   -7.676752e+02 1.085520e+01 3.158300e+02
      vertex   -7.676752e+02 1.085520e+01 3.098300e+02
      vertex   -7.683295e+02 1.099429e+01 3.158300e+02
    endloop
  endfacet
  facet normal 2.079117e-01 9.781476e-01 -6.430992e-15
    outer loop
      vertex   -7.683295e+02 1.099429e+01 3.158300e+02
      vertex   -7.676752e+02 1.085520e+01 3.098300e+02
      vertex   -7.683295e+02 1.099429e+01 3.098300e+02
    endloop
  endfacet
  facet normal 4.067366e-01 9.135455e-01 -1.406122e-14
    outer loop
      vertex   -7.683295e+02 1.099429e+01 3.158300e+02
      vertex   -7.683295e+02 1.099429e+01 3.098300e+02
      vertex   -7.689407e+02 1.126639e+01 3.158300e+02
    endloop
  endfacet
  facet normal 4.067366e-01 9.135455e-01 -6.354448e-15
    outer loop
      vertex   -7.689407e+02 1.126639e+01 3.158300e+02
      vertex   -7.683295e+02 1.099429e+01 3.098300e+02
      vertex   -7.689407e+02 1.126639e+01 3.098300e+02
    endloop
  endfacet
  facet normal 5.877853e-01 8.090170e-01 -9.939655e-15
    outer loop
      vertex   -7.689407e+02 1.126639e+01 3.158300e+02
      vertex   -7.689407e+02 1.126639e+01 3.098300e+02
      vertex   -7.694819e+02 1.165961e+01 3.158300e+02
    endloop
  endfacet
  facet normal 5.877853e-01 8.090170e-01 -2.107690e-14
    outer loop
      vertex   -7.694819e+02 1.165961e+01 3.158300e+02
      vertex   -7.689407e+02 1.126639e+01 3.098300e+02
      vertex   -7.694819e+02 1.165961e+01 3.098300e+02
    endloop
  endfacet
  facet normal 7.431448e-01 6.691306e-01 -2.717142e-14
    outer loop
      vertex   -7.694819e+02 1.165961e+01 3.158300e+02
      vertex   -7.694819e+02 1.165961e+01 3.098300e+02
      vertex   -7.699295e+02 1.215676e+01 3.158300e+02
    endloop
  endfacet
  facet normal 7.431448e-01 6.691306e-01 -1.309045e-14
    outer loop
      vertex   -7.699295e+02 1.215676e+01 3.158300e+02
      vertex   -7.694819e+02 1.165961e+01 3.098300e+02
      vertex   -7.699295e+02 1.215676e+01 3.098300e+02
    endloop
  endfacet
  facet normal 8.660254e-01 5.000000e-01 -1.566913e-14
    outer loop
      vertex   -7.699295e+02 1.215676e+01 3.158300e+02
      vertex   -7.699295e+02 1.215676e+01 3.098300e+02
      vertex   -7.702640e+02 1.273611e+01 3.158300e+02
    endloop
  endfacet
  facet normal 8.660254e-01 5.000000e-01 -3.207841e-14
    outer loop
      vertex   -7.702640e+02 1.273611e+01 3.158300e+02
      vertex   -7.699295e+02 1.215676e+01 3.098300e+02
      vertex   -7.702640e+02 1.273611e+01 3.098300e+02
    endloop
  endfacet
  facet normal 9.510565e-01 3.090170e-01 -3.558343e-14
    outer loop
      vertex   -7.702640e+02 1.273611e+01 3.158300e+02
      vertex   -7.702640e+02 1.273611e+01 3.098300e+02
      vertex   -7.704707e+02 1.337235e+01 3.158300e+02
    endloop
  endfacet
  facet normal 9.510565e-01 3.090170e-01 -1.756300e-14
    outer loop
      vertex   -7.704707e+02 1.337235e+01 3.158300e+02
      vertex   -7.702640e+02 1.273611e+01 3.098300e+02
      vertex   -7.704707e+02 1.337235e+01 3.098300e+02
    endloop
  endfacet
  facet normal 9.945219e-01 1.045285e-01 -1.868928e-14
    outer loop
      vertex   -7.704707e+02 1.337235e+01 3.158300e+02
      vertex   -7.704707e+02 1.337235e+01 3.098300e+02
      vertex   -7.705407e+02 1.403767e+01 3.158300e+02
    endloop
  endfacet
  facet normal 9.945219e-01 1.045285e-01 -1.872022e-14
    outer loop
      vertex   -7.705407e+02 1.403767e+01 3.158300e+02
      vertex   -7.704707e+02 1.337235e+01 3.098300e+02
      vertex   -7.705407e+02 1.403767e+01 3.098300e+02
    endloop
  endfacet
  facet normal 9.945219e-01 -1.045285e-01 -1.896779e-14
    outer loop
      vertex   -7.705407e+02 1.403767e+01 3.158300e+02
      vertex   -7.705407e+02 1.403767e+01 3.098300e+02
      vertex   -7.704707e+02 1.470299e+01 3.158300e+02
    endloop
  endfacet
  facet normal 9.945219e-01 -1.045285e-01 -1.896779e-14
    outer loop
      vertex   -7.704707e+02 1.470299e+01 3.158300e+02
      vertex   -7.705407e+02 1.403767e+01 3.098300e+02
      vertex   -7.704707e+02 1.470299e+01 3.098300e+02
    endloop
  endfacet
  facet normal 9.510565e-01 -3.090170e-01 -1.838638e-14
    outer loop
      vertex   -7.704707e+02 1.470299e+01 3.158300e+02
      vertex   -7.704707e+02 1.470299e+01 3.098300e+02
      vertex   -7.702640e+02 1.533923e+01 3.158300e+02
    endloop
  endfacet
  facet normal 9.510565e-01 -3.090170e-01 -3.649831e-14
    outer loop
      vertex   -7.702640e+02 1.533923e+01 3.158300e+02
      vertex   -7.704707e+02 1.470299e+01 3.098300e+02
      vertex   -7.702640e+02 1.533923e+01 3.098300e+02
    endloop
  endfacet
  facet normal 8.660254e-01 -5.000000e-01 -3.355871e-14
    outer loop
      vertex   -7.702640e+02 1.533923e+01 3.158300e+02
      vertex   -7.702640e+02 1.533923e+01 3.098300e+02
      vertex   -7.699295e+02 1.591858e+01 3.158300e+02
    endloop
  endfacet
  facet normal 8.660254e-01 -5.000000e-01 -1.714943e-14
    outer loop
      vertex   -7.699295e+02 1.591858e+01 3.158300e+02
      vertex   -7.702640e+02 1.533923e+01 3.098300e+02
      vertex   -7.699295e+02 1.591858e+01 3.098300e+02
    endloop
  endfacet
  facet normal 7.431448e-01 -6.691306e-01 -1.507148e-14
    outer loop
      vertex   -7.699295e+02 1.591858e+01 3.158300e+02
      vertex   -7.699295e+02 1.591858e+01 3.098300e+02
      vertex   -7.694819e+02 1.641574e+01 3.158300e+02
    endloop
  endfacet
  facet normal 7.431448e-01 -6.691306e-01 -2.895434e-14
    outer loop
      vertex   -7.694819e+02 1.641574e+01 3.158300e+02
      vertex   -7.699295e+02 1.591858e+01 3.098300e+02
      vertex   -7.694819e+02 1.641574e+01 3.098300e+02
    endloop
  endfacet
  facet normal 5.877853e-01 -8.090170e-01 -2.323255e-14
    outer loop
      vertex   -7.694819e+02 1.641574e+01 3.158300e+02
      vertex   -7.694819e+02 1.641574e+01 3.098300e+02
      vertex   -7.689407e+02 1.680895e+01 3.158300e+02
    endloop
  endfacet
  facet normal 5.877853e-01 -8.090170e-01 -1.209531e-14
    outer loop
      vertex   -7.689407e+02 1.680895e+01 3.158300e+02
      vertex   -7.694819e+02 1.641574e+01 3.098300e+02
      vertex   -7.689407e+02 1.680895e+01 3.098300e+02
    endloop
  endfacet
  facet normal 4.067366e-01 -9.135455e-01 -8.788622e-15
    outer loop
      vertex   -7.689407e+02 1.680895e+01 3.158300e+02
      vertex   -7.689407e+02 1.680895e+01 3.098300e+02
      vertex   -7.683295e+02 1.708105e+01 3.158300e+02
    endloop
  endfacet
  facet normal 4.067366e-01 -9.135455e-01 -1.649539e-14
    outer loop
      vertex   -7.683295e+02 1.708105e+01 3.158300e+02
      vertex   -7.689407e+02 1.680895e+01 3.098300e+02
      vertex   -7.683295e+02 1.708105e+01 3.098300e+02
    endloop
  endfacet
  facet normal 2.079117e-01 -9.781476e-01 -9.037300e-15
    outer loop
      vertex   -7.683295e+02 1.708105e+01 3.158300e+02
      vertex   -7.683295e+02 1.708105e+01 3.098300e+02
      vertex   -7.676752e+02 1.722014e+01 3.158300e+02
    endloop
  endfacet
  facet normal 2.079117e-01 -9.781476e-01 -5.097830e-15
    outer loop
      vertex   -7.676752e+02 1.722014e+01 3.158300e+02
      vertex   -7.683295e+02 1.708105e+01 3.098300e+02
      vertex   -7.676752e+02 1.722014e+01 3.098300e+02
    endloop
  endfacet
  facet normal 0.000000e+00 -1.000000e+00 -1.184238e-15
    outer loop
      vertex   -7.676752e+02 1.722014e+01 3.158300e+02
      vertex   -7.676752e+02 1.722014e+01 3.098300e+02
      vertex   -7.670062e+02 1.722014e+01 3.158300e+02
    endloop
  endfacet
  facet normal 0.000000e+00 -1.000000e+00 -1.184238e-15
    outer loop
      vertex   -7.670062e+02 1.722014e+01 3.158300e+02
      vertex   -7.676752e+02 1.722014e+01 3.098300e+02
      vertex   -7.670062e+02 1.722014e+01 3.098300e+02
    endloop
  endfacet
  facet normal -2.079117e-01 -9.781476e-01 2.781111e-15
    outer loop
      vertex   -7.670062e+02 1.722014e+01 3.158300e+02
      vertex   -7.670062e+02 1.722014e+01 3.098300e+02
      vertex   -7.663518e+02 1.708105e+01 3.158300e+02
    endloop
  endfacet
  facet normal -2.079117e-01 -9.781476e-01 2.781111e-15
    outer loop
      vertex   -7.663518e+02 1.708105e+01 3.158300e+02
      vertex   -7.670062e+02 1.722014e+01 3.098300e+02
      vertex   -7.663518e+02 1.708105e+01 3.098300e+02
    endloop
  endfacet
  facet normal -4.067366e-01 -9.135455e-01 6.624912e-15
    outer loop
      vertex   -7.663518e+02 1.708105e+01 3.158300e+02
      vertex   -7.663518e+02 1.708105e+01 3.098300e+02
      vertex   -7.657407e+02 1.680895e+01 3.158300e+02
    endloop
  endfacet
  facet normal -4.067366e-01 -9.135455e-01 6.624912e-15
    outer loop
      vertex   -7.657407e+02 1.680895e+01 3.158300e+02
      vertex   -7.663518e+02 1.708105e+01 3.098300e+02
      vertex   -7.657407e+02 1.680895e+01 3.098300e+02
    endloop
  endfacet
  facet normal -5.877853e-01 -8.090170e-01 1.017917e-14
    outer loop
      vertex   -7.657407e+02 1.680895e+01 3.158300e+02
      vertex   -7.657407e+02 1.680895e+01 3.098300e+02
      vertex   -7.651995e+02 1.641574e+01 3.158300e+02
    endloop
  endfacet
  facet normal -5.877853e-01 -8.090170e-01 2.131641e-14
    outer loop
      vertex   -7.651995e+02 1.641574e+01 3.158300e+02
      vertex   -7.657407e+02 1.680895e+01 3.098300e+02
      vertex   -7.651995e+02 1.641574e+01 3.098300e+02
    endloop
  endfacet
  facet normal -7.431448e-01 -6.691306e-01 2.736952e-14
    outer loop
      vertex   -7.651995e+02 1.641574e+01 3.158300e+02
      vertex   -7.651995e+02 1.641574e+01 3.098300e+02
      vertex   -7.647518e+02 1.591858e+01 3.158300e+02
    endloop
  endfacet
  facet normal -7.431448e-01 -6.691306e-01 2.717142e-14
    outer loop
      vertex   -7.647518e+02 1.591858e+01 3.158300e+02
      vertex   -7.651995e+02 1.641574e+01 3.098300e+02
      vertex   -7.647518e+02 1.591858e+01 3.098300e+02
    endloop
  endfacet
  facet normal -8.660254e-01 -5.000000e-01 3.207841e-14
    outer loop
      vertex   -7.647518e+02 1.591858e+01 3.158300e+02
      vertex   -7.647518e+02 1.591858e+01 3.098300e+02
      vertex   -7.644173e+02 1.533923e+01 3.158300e+02
    endloop
  endfacet
  facet normal -8.660254e-01 -5.000000e-01 1.566913e-14
    outer loop
      vertex   -7.644173e+02 1.533923e+01 3.158300e+02
      vertex   -7.647518e+02 1.591858e+01 3.098300e+02
      vertex   -7.644173e+02 1.533923e+01 3.098300e+02
    endloop
  endfacet
  facet normal -9.510565e-01 -3.090170e-01 1.756300e-14
    outer loop
      vertex   -7.644173e+02 1.533923e+01 3.158300e+02
      vertex   -7.644173e+02 1.533923e+01 3.098300e+02
      vertex   -7.642106e+02 1.470299e+01 3.158300e+02
    endloop
  endfacet
  facet normal -9.510565e-01 -3.090170e-01 1.756300e-14
    outer loop
      vertex   -7.642106e+02 1.470299e+01 3.158300e+02
      vertex   -7.644173e+02 1.533923e+01 3.098300e+02
      vertex   -7.642106e+02 1.470299e+01 3.098300e+02
    endloop
  endfacet
  facet normal -1.000000e+00 -2.692645e-29 1.894781e-14
    outer loop
      vertex   -8.289588e+02 9.410065e+01 3.098300e+02
      vertex   -8.289588e+02 5.410065e+01 3.098300e+02
      vertex   -8.289588e+02 9.410065e+01 3.158300e+02
    endloop
  endfacet
  facet normal -1.000000e+00 -2.692645e-29 1.894781e-14
    outer loop
      vertex   -8.289588e+02 9.410065e+01 3.158300e+02
      vertex   -8.289588e+02 5.410065e+01 3.098300e+02
      vertex   -8.289588e+02 5.410065e+01 3.158300e+02
    endloop
  endfacet
  facet normal 0.000000e+00 1.000000e+00 -0.000000e+00
    outer loop
      vertex   -7.579588e+02 9.410065e+01 3.098300e+02
      vertex   -8.289588e+02 9.410065e+01 3.098300e+02
      vertex   -7.579588e+02 9.410065e+01 3.158300e+02
    endloop
  endfacet
  facet normal 0.000000e+00 1.000000e+00 0.000000e+00
    outer loop
      vertex   -7.579588e+02 9.410065e+01 3.158300e+02
      vertex   -8.289588e+02 9.410065e+01 3.098300e+02
      vertex   -8.289588e+02 9.410065e+01 3.158300e+02
    endloop
  endfacet
  facet normal 1.000000e+00 3.590194e-29 -1.894781e-14
    outer loop
      vertex   -7.579588e+02 4.100653e+00 3.098300e+02
      vertex   -7.579588e+02 9.410065e+01 3.098300e+02
      vertex   -7.579588e+02 4.100653e+00 3.158300e+02
    endloop
  endfacet
  facet normal 1.000000e+00 3.590194e-29 -1.894781e-14
    outer loop
      vertex   -7.579588e+02 4.100653e+00 3.158300e+02
      vertex   -7.579588e+02 9.410065e+01 3.098300e+02
      vertex   -7.579588e+02 9.410065e+01 3.158300e+02
    endloop
  endfacet
  facet normal -1.979886e-29 -1.000000e+00 -1.480297e-15
    outer loop
      vertex   -7.749588e+02 4.100653e+00 3.098300e+02
      vertex   -7.579588e+02 4.100653e+00 3.098300e+02
      vertex   -7.749588e+02 4.100653e+00 3.158300e+02
    endloop
  endfacet
  facet normal -1.979886e-29 -1.000000e+00 -1.480297e-15
    outer loop
      vertex   -7.749588e+02 4.100653e+00 3.158300e+02
      vertex   -7.579588e+02 4.100653e+00 3.098300e+02
      vertex   -7.579588e+02 4.100653e+00 3.158300e+02
    endloop
  endfacet
  facet normal -1.000000e+00 -2.154116e-29 1.894781e-14
    outer loop
      vertex   -7.749588e+02 5.410065e+01 3.098300e+02
      vertex   -7.749588e+02 4.100653e+00 3.098300e+02
      vertex   -7.749588e+02 5.410065e+01 3.158300e+02
    endloop
  endfacet
  facet normal -1.000000e+00 -2.154116e-29 1.894781e-14
    outer loop
      vertex   -7.749588e+02 5.410065e+01 3.158300e+02
      vertex   -7.749588e+02 4.100653e+00 3.098300e+02
      vertex   -7.749588e+02 4.100653e+00 3.158300e+02
    endloop
  endfacet
  facet normal 0.000000e+00 -1.000000e+00 0.000000e+00
    outer loop
      vertex   -8.289588e+02 5.410065e+01 3.098300e+02
      vertex   -7.749588e+02 5.410065e+01 3.098300e+02
      vertex   -8.289588e+02 5.410065e+01 3.158300e+02
    endloop
  endfacet
  facet normal 0.000000e+00 -1.000000e+00 0.000000e+00
    outer loop
      vertex   -8.289588e+02 5.410065e+01 3.158300e+02
      vertex   -7.749588e+02 5.410065e+01 3.098300e+02
      vertex   -7.749588e+02 5.410065e+01 3.158300e+02
    endloop
  endfacet
  facet normal 2.212910e-14 2.325863e-15 1.000000e+00
    outer loop
      vertex   -7.642106e+02 1.470299e+01 3.158300e+02
      vertex   -7.641407e+02 1.403767e+01 3.158300e+02
      vertex   -7.579588e+02 4.100653e+00 3.158300e+02
    endloop
  endfacet
  facet normal 1.573241e-14 -1.653543e-15 1.000000e+00
    outer loop
      vertex   -7.579588e+02 4.100653e+00 3.158300e+02
      vertex   -7.641407e+02 1.403767e+01 3.158300e+02
      vertex   -7.642106e+02 1.337235e+01 3.158300e+02
    endloop
  endfacet
  facet normal 1.227144e-14 -3.987232e-15 1.000000e+00
    outer loop
      vertex   -7.579588e+02 4.100653e+00 3.158300e+02
      vertex   -7.642106e+02 1.337235e+01 3.158300e+02
      vertex   -7.644173e+02 1.273611e+01 3.158300e+02
    endloop
  endfacet
  facet normal 9.934015e-15 -5.735406e-15 1.000000e+00
    outer loop
      vertex   -7.644173e+02 1.273611e+01 3.158300e+02
      vertex   -7.647518e+02 1.215676e+01 3.158300e+02
      vertex   -7.579588e+02 4.100653e+00 3.158300e+02
    endloop
  endfacet
  facet normal 8.093460e-15 -7.287384e-15 1.000000e+00
    outer loop
      vertex   -7.579588e+02 4.100653e+00 3.158300e+02
      vertex   -7.647518e+02 1.215676e+01 3.158300e+02
      vertex   -7.651995e+02 1.165961e+01 3.158300e+02
    endloop
  endfacet
  facet normal 6.443134e-15 -8.868213e-15 1.000000e+00
    outer loop
      vertex   -7.579588e+02 4.100653e+00 3.158300e+02
      vertex   -7.651995e+02 1.165961e+01 3.158300e+02
      vertex   -7.657407e+02 1.126639e+01 3.158300e+02
    endloop
  endfacet
  facet normal 6.745822e-14 5.739304e-14 1.000000e+00
    outer loop
      vertex   -7.657407e+02 1.126639e+01 3.158300e+02
      vertex   -7.663518e+02 1.099429e+01 3.158300e+02
      vertex   -7.579588e+02 4.100653e+00 3.158300e+02
    endloop
  endfacet
  facet normal 4.177102e-15 -1.965172e-14 1.000000e+00
    outer loop
      vertex   -7.579588e+02 4.100653e+00 3.158300e+02
      vertex   -7.663518e+02 1.099429e+01 3.158300e+02
      vertex   -7.670062e+02 1.085520e+01 3.158300e+02
    endloop
  endfacet
  facet normal 1.337492e-14 -7.331716e-15 1.000000e+00
    outer loop
      vertex   -7.579588e+02 4.100653e+00 3.158300e+02
      vertex   -7.670062e+02 1.085520e+01 3.158300e+02
      vertex   -7.749588e+02 4.100653e+00 3.158300e+02
    endloop
  endfacet
  facet normal 0.000000e+00 8.415576e-15 1.000000e+00
    outer loop
      vertex   -7.749588e+02 4.100653e+00 3.158300e+02
      vertex   -7.670062e+02 1.085520e+01 3.158300e+02
      vertex   -7.676752e+02 1.085520e+01 3.158300e+02
    endloop
  endfacet
  facet normal 1.455236e-15 6.846348e-15 1.000000e+00
    outer loop
      vertex   -7.749588e+02 4.100653e+00 3.158300e+02
      vertex   -7.676752e+02 1.085520e+01 3.158300e+02
      vertex   -7.683295e+02 1.099429e+01 3.158300e+02
    endloop
  endfacet
  facet normal 2.570629e-15 5.773727e-15 1.000000e+00
    outer loop
      vertex   -7.683295e+02 1.099429e+01 3.158300e+02
      vertex   -7.689407e+02 1.126639e+01 3.158300e+02
      vertex   -7.749588e+02 4.100653e+00 3.158300e+02
    endloop
  endfacet
  facet normal 3.579350e-15 4.926553e-15 1.000000e+00
    outer loop
      vertex   -7.749588e+02 4.100653e+00 3.158300e+02
      vertex   -7.689407e+02 1.126639e+01 3.158300e+02
      vertex   -7.694819e+02 1.165961e+01 3.158300e+02
    endloop
  endfacet
  facet normal 4.627798e-15 4.166888e-15 1.000000e+00
    outer loop
      vertex   -7.749588e+02 4.100653e+00 3.158300e+02
      vertex   -7.694819e+02 1.165961e+01 3.158300e+02
      vertex   -7.699295e+02 1.215676e+01 3.158300e+02
    endloop
  endfacet
  facet normal 5.871961e-15 3.390178e-15 1.000000e+00
    outer loop
      vertex   -7.699295e+02 1.215676e+01 3.158300e+02
      vertex   -7.702640e+02 1.273611e+01 3.158300e+02
      vertex   -7.749588e+02 4.100653e+00 3.158300e+02
    endloop
  endfacet
  facet normal 7.578488e-15 2.462400e-15 1.000000e+00
    outer loop
      vertex   -7.749588e+02 4.100653e+00 3.158300e+02
      vertex   -7.702640e+02 1.273611e+01 3.158300e+02
      vertex   -7.704707e+02 1.337235e+01 3.158300e+02
    endloop
  endfacet
  facet normal 1.040599e-14 1.093714e-15 1.000000e+00
    outer loop
      vertex   -7.749588e+02 4.100653e+00 3.158300e+02
      vertex   -7.704707e+02 1.337235e+01 3.158300e+02
      vertex   -7.705407e+02 1.403767e+01 3.158300e+02
    endloop
  endfacet
  facet normal 1.684889e-14 -1.770889e-15 1.000000e+00
    outer loop
      vertex   -7.705407e+02 1.403767e+01 3.158300e+02
      vertex   -7.704707e+02 1.470299e+01 3.158300e+02
      vertex   -7.749588e+02 4.100653e+00 3.158300e+02
    endloop
  endfacet
  facet normal 1.979433e-14 -3.017721e-15 1.000000e+00
    outer loop
      vertex   -7.749588e+02 4.100653e+00 3.158300e+02
      vertex   -7.704707e+02 1.470299e+01 3.158300e+02
      vertex   -7.704859e+02 3.344043e+01 3.158300e+02
    endloop
  endfacet
  facet normal 0.000000e+00 0.000000e+00 1.000000e+00
    outer loop
      vertex   -7.749588e+02 4.100653e+00 3.158300e+02
      vertex   -7.704859e+02 3.344043e+01 3.158300e+02
      vertex   -7.705558e+02 3.410575e+01 3.158300e+02
    endloop
  endfacet
  facet normal -9.359934e-15 -3.041227e-15 1.000000e+00
    outer loop
      vertex   -7.704859e+02 3.344043e+01 3.158300e+02
      vertex   -7.704707e+02 1.470299e+01 3.158300e+02
      vertex   -7.702791e+02 3.280419e+01 3.158300e+02
    endloop
  endfacet
  facet normal 9.990375e-15 -3.246070e-15 1.000000e+00
    outer loop
      vertex   -7.702791e+02 3.280419e+01 3.158300e+02
      vertex   -7.704707e+02 1.470299e+01 3.158300e+02
      vertex   -7.702640e+02 1.533923e+01 3.158300e+02
    endloop
  endfacet
  facet normal -5.645784e-15 -3.259595e-15 1.000000e+00
    outer loop
      vertex   -7.702791e+02 3.280419e+01 3.158300e+02
      vertex   -7.702640e+02 1.533923e+01 3.158300e+02
      vertex   -7.699446e+02 3.222484e+01 3.158300e+02
    endloop
  endfacet
  facet normal 6.028236e-15 -3.480404e-15 1.000000e+00
    outer loop
      vertex   -7.699446e+02 3.222484e+01 3.158300e+02
      vertex   -7.702640e+02 1.533923e+01 3.158300e+02
      vertex   -7.699295e+02 1.591858e+01 3.158300e+02
    endloop
  endfacet
  facet normal -3.875571e-15 -3.489579e-15 1.000000e+00
    outer loop
      vertex   -7.699446e+02 3.222484e+01 3.158300e+02
      vertex   -7.699295e+02 1.591858e+01 3.158300e+02
      vertex   -7.694970e+02 3.172769e+01 3.158300e+02
    endloop
  endfacet
  facet normal 4.118476e-15 -3.708293e-15 1.000000e+00
    outer loop
      vertex   -7.694970e+02 3.172769e+01 3.158300e+02
      vertex   -7.699295e+02 1.591858e+01 3.158300e+02
      vertex   -7.694819e+02 1.641574e+01 3.158300e+02
    endloop
  endfacet
  facet normal -2.699119e-15 -3.715019e-15 1.000000e+00
    outer loop
      vertex   -7.694970e+02 3.172769e+01 3.158300e+02
      vertex   -7.694819e+02 1.641574e+01 3.158300e+02
      vertex   -7.689558e+02 3.133447e+01 3.158300e+02
    endloop
  endfacet
  facet normal 2.841068e-15 -3.910394e-15 1.000000e+00
    outer loop
      vertex   -7.689558e+02 3.133447e+01 3.158300e+02
      vertex   -7.694819e+02 1.641574e+01 3.158300e+02
      vertex   -7.689407e+02 1.680895e+01 3.158300e+02
    endloop
  endfacet
  facet normal 9.131120e-14 -3.818381e-15 1.000000e+00
    outer loop
      vertex   -7.689558e+02 3.133447e+01 3.158300e+02
      vertex   -7.689407e+02 1.680895e+01 3.158300e+02
      vertex   -7.683446e+02 3.106237e+01 3.158300e+02
    endloop
  endfacet
  facet normal 0.000000e+00 0.000000e+00 1.000000e+00
    outer loop
      vertex   -7.683446e+02 3.106237e+01 3.158300e+02
      vertex   -7.689407e+02 1.680895e+01 3.158300e+02
      vertex   -7.683295e+02 1.708105e+01 3.158300e+02
    endloop
  endfacet
  facet normal 0.000000e+00 0.000000e+00 1.000000e+00
    outer loop
      vertex   -7.683446e+02 3.106237e+01 3.158300e+02
      vertex   -7.683295e+02 1.708105e+01 3.158300e+02
      vertex   -7.676903e+02 3.092328e+01 3.158300e+02
    endloop
  endfacet
  facet normal 0.000000e+00 0.000000e+00 1.000000e+00
    outer loop
      vertex   -7.676903e+02 3.092328e+01 3.158300e+02
      vertex   -7.683295e+02 1.708105e+01 3.158300e+02
      vertex   -7.676752e+02 1.722014e+01 3.158300e+02
    endloop
  endfacet
  facet normal -0.000000e+00 0.000000e+00 1.000000e+00
    outer loop
      vertex   -7.676903e+02 3.092328e+01 3.158300e+02
      vertex   -7.676752e+02 1.722014e+01 3.158300e+02
      vertex   -7.670213e+02 3.092328e+01 3.158300e+02
    endloop
  endfacet
  facet normal 0.000000e+00 0.000000e+00 1.000000e+00
    outer loop
      vertex   -7.670213e+02 3.092328e+01 3.158300e+02
      vertex   -7.676752e+02 1.722014e+01 3.158300e+02
      vertex   -7.670062e+02 1.722014e+01 3.158300e+02
    endloop
  endfacet
  facet normal -0.000000e+00 0.000000e+00 1.000000e+00
    outer loop
      vertex   -7.670213e+02 3.092328e+01 3.158300e+02
      vertex   -7.670062e+02 1.722014e+01 3.158300e+02
      vertex   -7.663669e+02 3.106237e+01 3.158300e+02
    endloop
  endfacet
  facet normal 0.000000e+00 0.000000e+00 1.000000e+00
    outer loop
      vertex   -7.663669e+02 3.106237e+01 3.158300e+02
      vertex   -7.670062e+02 1.722014e+01 3.158300e+02
      vertex   -7.663518e+02 1.708105e+01 3.158300e+02
    endloop
  endfacet
  facet normal -0.000000e+00 0.000000e+00 1.000000e+00
    outer loop
      vertex   -7.663669e+02 3.106237e+01 3.158300e+02
      vertex   -7.663518e+02 1.708105e+01 3.158300e+02
      vertex   -7.657558e+02 3.133447e+01 3.158300e+02
    endloop
  endfacet
  facet normal 9.131120e-14 -3.818381e-15 1.000000e+00
    outer loop
      vertex   -7.657558e+02 3.133447e+01 3.158300e+02
      vertex   -7.663518e+02 1.708105e+01 3.158300e+02
      vertex   -7.657407e+02 1.680895e+01 3.158300e+02
    endloop
  endfacet
  facet normal 2.841068e-15 -3.910394e-15 1.000000e+00
    outer loop
      vertex   -7.657558e+02 3.133447e+01 3.158300e+02
      vertex   -7.657407e+02 1.680895e+01 3.158300e+02
      vertex   -7.652146e+02 3.172769e+01 3.158300e+02
    endloop
  endfacet
  facet normal -2.699119e-15 -3.715019e-15 1.000000e+00
    outer loop
      vertex   -7.652146e+02 3.172769e+01 3.158300e+02
      vertex   -7.657407e+02 1.680895e+01 3.158300e+02
      vertex   -7.651995e+02 1.641574e+01 3.158300e+02
    endloop
  endfacet
  facet normal 4.118476e-15 -3.708293e-15 1.000000e+00
    outer loop
      vertex   -7.652146e+02 3.172769e+01 3.158300e+02
      vertex   -7.651995e+02 1.641574e+01 3.158300e+02
      vertex   -7.647669e+02 3.222484e+01 3.158300e+02
    endloop
  endfacet
  facet normal -3.875571e-15 -3.489579e-15 1.000000e+00
    outer loop
      vertex   -7.647669e+02 3.222484e+01 3.158300e+02
      vertex   -7.651995e+02 1.641574e+01 3.158300e+02
      vertex   -7.647518e+02 1.591858e+01 3.158300e+02
    endloop
  endfacet
  facet normal 6.028236e-15 -3.480404e-15 1.000000e+00
    outer loop
      vertex   -7.647669e+02 3.222484e+01 3.158300e+02
      vertex   -7.647518e+02 1.591858e+01 3.158300e+02
      vertex   -7.644324e+02 3.280419e+01 3.158300e+02
    endloop
  endfacet
  facet normal -5.645784e-15 -3.259595e-15 1.000000e+00
    outer loop
      vertex   -7.644324e+02 3.280419e+01 3.158300e+02
      vertex   -7.647518e+02 1.591858e+01 3.158300e+02
      vertex   -7.644173e+02 1.533923e+01 3.158300e+02
    endloop
  endfacet
  facet normal 9.990375e-15 -3.246070e-15 1.000000e+00
    outer loop
      vertex   -7.644324e+02 3.280419e+01 3.158300e+02
      vertex   -7.644173e+02 1.533923e+01 3.158300e+02
      vertex   -7.642257e+02 3.344043e+01 3.158300e+02
    endloop
  endfacet
  facet normal -9.359934e-15 -3.041227e-15 1.000000e+00
    outer loop
      vertex   -7.642257e+02 3.344043e+01 3.158300e+02
      vertex   -7.644173e+02 1.533923e+01 3.158300e+02
      vertex   -7.642106e+02 1.470299e+01 3.158300e+02
    endloop
  endfacet
  facet normal 1.305777e-14 -3.023152e-15 1.000000e+00
    outer loop
      vertex   -7.642257e+02 3.344043e+01 3.158300e+02
      vertex   -7.642106e+02 1.470299e+01 3.158300e+02
      vertex   -7.579588e+02 4.100653e+00 3.158300e+02
    endloop
  endfacet
  facet normal 1.823731e-14 -1.916818e-15 1.000000e+00
    outer loop
      vertex   -7.642257e+02 3.344043e+01 3.158300e+02
      vertex   -7.579588e+02 4.100653e+00 3.158300e+02
      vertex   -7.641558e+02 3.410575e+01 3.158300e+02
    endloop
  endfacet
  facet normal 1.834401e-14 -1.894781e-15 1.000000e+00
    outer loop
      vertex   -7.641558e+02 3.410575e+01 3.158300e+02
      vertex   -7.579588e+02 4.100653e+00 3.158300e+02
      vertex   -7.579588e+02 9.410065e+01 3.158300e+02
    endloop
  endfacet
  facet normal 0.000000e+00 -0.000000e+00 1.000000e+00
    outer loop
      vertex   -7.641558e+02 3.410575e+01 3.158300e+02
      vertex   -7.579588e+02 9.410065e+01 3.158300e+02
      vertex   -7.642257e+02 3.477107e+01 3.158300e+02
    endloop
  endfacet
  facet normal 0.000000e+00 -0.000000e+00 1.000000e+00
    outer loop
      vertex   -7.642257e+02 3.477107e+01 3.158300e+02
      vertex   -7.579588e+02 9.410065e+01 3.158300e+02
      vertex   -7.644324e+02 3.540731e+01 3.158300e+02
    endloop
  endfacet
  facet normal 0.000000e+00 -0.000000e+00 1.000000e+00
    outer loop
      vertex   -7.644324e+02 3.540731e+01 3.158300e+02
      vertex   -7.579588e+02 9.410065e+01 3.158300e+02
      vertex   -7.647669e+02 3.598666e+01 3.158300e+02
    endloop
  endfacet
  facet normal 0.000000e+00 -0.000000e+00 1.000000e+00
    outer loop
      vertex   -7.647669e+02 3.598666e+01 3.158300e+02
      vertex   -7.579588e+02 9.410065e+01 3.158300e+02
      vertex   -7.652146e+02 3.648382e+01 3.158300e+02
    endloop
  endfacet
  facet normal 9.503396e-15 -1.196772e-15 1.000000e+00
    outer loop
      vertex   -7.652146e+02 3.648382e+01 3.158300e+02
      vertex   -7.579588e+02 9.410065e+01 3.158300e+02
      vertex   -7.749588e+02 5.410065e+01 3.158300e+02
    endloop
  endfacet
  facet normal -7.838717e-15 -1.078907e-14 1.000000e+00
    outer loop
      vertex   -7.652146e+02 3.648382e+01 3.158300e+02
      vertex   -7.749588e+02 5.410065e+01 3.158300e+02
      vertex   -7.657558e+02 3.687703e+01 3.158300e+02
    endloop
  endfacet
  facet normal -3.856164e-15 -8.661085e-15 1.000000e+00
    outer loop
      vertex   -7.657558e+02 3.687703e+01 3.158300e+02
      vertex   -7.749588e+02 5.410065e+01 3.158300e+02
      vertex   -7.663669e+02 3.714913e+01 3.158300e+02
    endloop
  endfacet
  facet normal -1.597651e-15 -7.516357e-15 1.000000e+00
    outer loop
      vertex   -7.663669e+02 3.714913e+01 3.158300e+02
      vertex   -7.749588e+02 5.410065e+01 3.158300e+02
      vertex   -7.670213e+02 3.728822e+01 3.158300e+02
    endloop
  endfacet
  facet normal 0.000000e+00 -6.762070e-15 1.000000e+00
    outer loop
      vertex   -7.670213e+02 3.728822e+01 3.158300e+02
      vertex   -7.749588e+02 5.410065e+01 3.158300e+02
      vertex   -7.676903e+02 3.728822e+01 3.158300e+02
    endloop
  endfacet
  facet normal 1.316356e-15 -6.192968e-15 1.000000e+00
    outer loop
      vertex   -7.676903e+02 3.728822e+01 3.158300e+02
      vertex   -7.749588e+02 5.410065e+01 3.158300e+02
      vertex   -7.683446e+02 3.714913e+01 3.158300e+02
    endloop
  endfacet
  facet normal 8.178884e-14 2.520596e-14 1.000000e+00
    outer loop
      vertex   -7.683446e+02 3.714913e+01 3.158300e+02
      vertex   -7.749588e+02 5.410065e+01 3.158300e+02
      vertex   -7.689558e+02 3.687703e+01 3.158300e+02
    endloop
  endfacet
  facet normal 1.913320e-15 -2.633459e-15 1.000000e+00
    outer loop
      vertex   -7.689558e+02 3.687703e+01 3.158300e+02
      vertex   -7.749588e+02 5.410065e+01 3.158300e+02
      vertex   -7.694970e+02 3.648382e+01 3.158300e+02
    endloop
  endfacet
  facet normal 2.665690e-15 -2.400198e-15 1.000000e+00
    outer loop
      vertex   -7.694970e+02 3.648382e+01 3.158300e+02
      vertex   -7.749588e+02 5.410065e+01 3.158300e+02
      vertex   -7.699446e+02 3.598666e+01 3.158300e+02
    endloop
  endfacet
  facet normal 3.673884e-15 -2.121118e-15 1.000000e+00
    outer loop
      vertex   -7.699446e+02 3.598666e+01 3.158300e+02
      vertex   -7.749588e+02 5.410065e+01 3.158300e+02
      vertex   -7.702791e+02 3.540731e+01 3.158300e+02
    endloop
  endfacet
  facet normal 5.286026e-15 -1.717534e-15 1.000000e+00
    outer loop
      vertex   -7.702791e+02 3.540731e+01 3.158300e+02
      vertex   -7.749588e+02 5.410065e+01 3.158300e+02
      vertex   -7.704859e+02 3.477107e+01 3.158300e+02
    endloop
  endfacet
  facet normal 8.738979e-15 -9.185037e-16 1.000000e+00
    outer loop
      vertex   -7.704859e+02 3.477107e+01 3.158300e+02
      vertex   -7.749588e+02 5.410065e+01 3.158300e+02
      vertex   -7.705558e+02 3.410575e+01 3.158300e+02
    endloop
  endfacet
  facet normal 7.747349e-15 -1.136868e-15 1.000000e+00
    outer loop
      vertex   -7.705558e+02 3.410575e+01 3.158300e+02
      vertex   -7.749588e+02 5.410065e+01 3.158300e+02
      vertex   -7.749588e+02 4.100653e+00 3.158300e+02
    endloop
  endfacet
  facet normal 1.440078e-14 1.895899e-15 1.000000e+00
    outer loop
      vertex   -8.000270e+02 6.461829e+01 3.158300e+02
      vertex   -7.999588e+02 6.410065e+01 3.158300e+02
      vertex   -7.749588e+02 5.410065e+01 3.158300e+02
    endloop
  endfacet
  facet normal 1.295994e-14 -1.706208e-15 1.000000e+00
    outer loop
      vertex   -7.749588e+02 5.410065e+01 3.158300e+02
      vertex   -7.999588e+02 6.410065e+01 3.158300e+02
      vertex   -8.000270e+02 6.358302e+01 3.158300e+02
    endloop
  endfacet
  facet normal 1.176238e-14 -4.872138e-15 1.000000e+00
    outer loop
      vertex   -7.749588e+02 5.410065e+01 3.158300e+02
      vertex   -8.000270e+02 6.358302e+01 3.158300e+02
      vertex   -8.002268e+02 6.310065e+01 3.158300e+02
    endloop
  endfacet
  facet normal 1.060054e-14 -8.134078e-15 1.000000e+00
    outer loop
      vertex   -8.002268e+02 6.310065e+01 3.158300e+02
      vertex   -8.005446e+02 6.268644e+01 3.158300e+02
      vertex   -7.749588e+02 5.410065e+01 3.158300e+02
    endloop
  endfacet
  facet normal 9.274249e-15 -1.208644e-14 1.000000e+00
    outer loop
      vertex   -7.749588e+02 5.410065e+01 3.158300e+02
      vertex   -8.005446e+02 6.268644e+01 3.158300e+02
      vertex   -8.009588e+02 6.236860e+01 3.158300e+02
    endloop
  endfacet
  facet normal 7.420716e-15 -1.791519e-14 1.000000e+00
    outer loop
      vertex   -7.749588e+02 5.410065e+01 3.158300e+02
      vertex   -8.009588e+02 6.236860e+01 3.158300e+02
      vertex   -8.014412e+02 6.216880e+01 3.158300e+02
    endloop
  endfacet
  facet normal 3.886019e-15 -2.951725e-14 1.000000e+00
    outer loop
      vertex   -8.014412e+02 6.216880e+01 3.158300e+02
      vertex   -8.019588e+02 6.210065e+01 3.158300e+02
      vertex   -7.749588e+02 5.410065e+01 3.158300e+02
    endloop
  endfacet
  facet normal 1.263187e-14 -8.975484e-29 1.000000e+00
    outer loop
      vertex   -7.749588e+02 5.410065e+01 3.158300e+02
      vertex   -8.019588e+02 6.210065e+01 3.158300e+02
      vertex   -8.289588e+02 5.410065e+01 3.158300e+02
    endloop
  endfacet
  facet normal 3.886019e-15 2.951725e-14 1.000000e+00
    outer loop
      vertex   -8.289588e+02 5.410065e+01 3.158300e+02
      vertex   -8.019588e+02 6.210065e+01 3.158300e+02
      vertex   -8.024765e+02 6.216880e+01 3.158300e+02
    endloop
  endfacet
  facet normal 7.420716e-15 1.791519e-14 1.000000e+00
    outer loop
      vertex   -8.289588e+02 5.410065e+01 3.158300e+02
      vertex   -8.024765e+02 6.216880e+01 3.158300e+02
      vertex   -8.029588e+02 6.236860e+01 3.158300e+02
    endloop
  endfacet
  facet normal 9.274249e-15 1.208644e-14 1.000000e+00
    outer loop
      vertex   -8.029588e+02 6.236860e+01 3.158300e+02
      vertex   -8.033730e+02 6.268644e+01 3.158300e+02
      vertex   -8.289588e+02 5.410065e+01 3.158300e+02
    endloop
  endfacet
  facet normal 4.722172e-14 -1.009977e-13 1.000000e+00
    outer loop
      vertex   -8.289588e+02 5.410065e+01 3.158300e+02
      vertex   -8.033730e+02 6.268644e+01 3.158300e+02
      vertex   -8.036909e+02 6.310065e+01 3.158300e+02
    endloop
  endfacet
  facet normal 9.801985e-15 4.060115e-15 1.000000e+00
    outer loop
      vertex   -8.289588e+02 5.410065e+01 3.158300e+02
      vertex   -8.036909e+02 6.310065e+01 3.158300e+02
      vertex   -8.038907e+02 6.358302e+01 3.158300e+02
    endloop
  endfacet
  facet normal 1.079995e-14 1.421840e-15 1.000000e+00
    outer loop
      vertex   -8.038907e+02 6.358302e+01 3.158300e+02
      vertex   -8.039588e+02 6.410065e+01 3.158300e+02
      vertex   -8.289588e+02 5.410065e+01 3.158300e+02
    endloop
  endfacet
  facet normal 1.200065e-14 -1.579916e-15 1.000000e+00
    outer loop
      vertex   -8.289588e+02 5.410065e+01 3.158300e+02
      vertex   -8.039588e+02 6.410065e+01 3.158300e+02
      vertex   -8.038907e+02 6.461829e+01 3.158300e+02
    endloop
  endfacet
  facet normal 1.193401e-14 -1.421085e-15 1.000000e+00
    outer loop
      vertex   -8.289588e+02 5.410065e+01 3.158300e+02
      vertex   -8.038907e+02 6.461829e+01 3.158300e+02
      vertex   -8.289588e+02 9.410065e+01 3.158300e+02
    endloop
  endfacet
  facet normal 9.148584e-15 -3.789468e-15 1.000000e+00
    outer loop
      vertex   -8.289588e+02 9.410065e+01 3.158300e+02
      vertex   -8.038907e+02 6.461829e+01 3.158300e+02
      vertex   -8.036909e+02 6.510065e+01 3.158300e+02
    endloop
  endfacet
  facet normal 9.092495e-14 6.746298e-14 1.000000e+00
    outer loop
      vertex   -8.289588e+02 9.410065e+01 3.158300e+02
      vertex   -8.036909e+02 6.510065e+01 3.158300e+02
      vertex   -8.033730e+02 6.551487e+01 3.158300e+02
    endloop
  endfacet
  facet normal 6.332066e-15 -8.252109e-15 1.000000e+00
    outer loop
      vertex   -8.033730e+02 6.551487e+01 3.158300e+02
      vertex   -8.029588e+02 6.583270e+01 3.158300e+02
      vertex   -8.289588e+02 9.410065e+01 3.158300e+02
    endloop
  endfacet
  facet normal 4.222022e-15 -1.019286e-14 1.000000e+00
    outer loop
      vertex   -8.289588e+02 9.410065e+01 3.158300e+02
      vertex   -8.029588e+02 6.583270e+01 3.158300e+02
      vertex   -8.024765e+02 6.603250e+01 3.158300e+02
    endloop
  endfacet
  facet normal 1.660139e-15 -1.261001e-14 1.000000e+00
    outer loop
      vertex   -8.289588e+02 9.410065e+01 3.158300e+02
      vertex   -8.024765e+02 6.603250e+01 3.158300e+02
      vertex   -8.019588e+02 6.610065e+01 3.158300e+02
    endloop
  endfacet
  facet normal -2.142942e-15 -1.627726e-14 1.000000e+00
    outer loop
      vertex   -8.019588e+02 6.610065e+01 3.158300e+02
      vertex   -8.014412e+02 6.603250e+01 3.158300e+02
      vertex   -8.289588e+02 9.410065e+01 3.158300e+02
    endloop
  endfacet
  facet normal 1.200917e-14 -2.402718e-15 1.000000e+00
    outer loop
      vertex   -8.289588e+02 9.410065e+01 3.158300e+02
      vertex   -8.014412e+02 6.603250e+01 3.158300e+02
      vertex   -7.579588e+02 9.410065e+01 3.158300e+02
    endloop
  endfacet
  facet normal 4.087805e-15 9.868835e-15 1.000000e+00
    outer loop
      vertex   -7.579588e+02 9.410065e+01 3.158300e+02
      vertex   -8.014412e+02 6.603250e+01 3.158300e+02
      vertex   -8.009588e+02 6.583270e+01 3.158300e+02
    endloop
  endfacet
  facet normal 5.695768e-15 7.422870e-15 1.000000e+00
    outer loop
      vertex   -7.579588e+02 9.410065e+01 3.158300e+02
      vertex   -8.009588e+02 6.583270e+01 3.158300e+02
      vertex   -8.005446e+02 6.551487e+01 3.158300e+02
    endloop
  endfacet
  facet normal 7.048114e-15 5.408208e-15 1.000000e+00
    outer loop
      vertex   -8.005446e+02 6.551487e+01 3.158300e+02
      vertex   -8.002268e+02 6.510065e+01 3.158300e+02
      vertex   -7.579588e+02 9.410065e+01 3.158300e+02
    endloop
  endfacet
  facet normal 1.243446e-14 -2.442474e-15 1.000000e+00
    outer loop
      vertex   -7.579588e+02 9.410065e+01 3.158300e+02
      vertex   -8.002268e+02 6.510065e+01 3.158300e+02
      vertex   -7.749588e+02 5.410065e+01 3.158300e+02
    endloop
  endfacet
  facet normal 1.646713e-14 6.820907e-15 1.000000e+00
    outer loop
      vertex   -8.002268e+02 6.510065e+01 3.158300e+02
      vertex   -8.000270e+02 6.461829e+01 3.158300e+02
      vertex   -7.749588e+02 5.410065e+01 3.158300e+02
    endloop
  endfacet
  facet normal -1.573241e-14 1.653543e-15 -1.000000e+00
    outer loop
      vertex   -7.642106e+02 1.337235e+01 3.098300e+02
      vertex   -7.641407e+02 1.403767e+01 3.098300e+02
      vertex   -7.579588e+02 4.100653e+00 3.098300e+02
    endloop
  endfacet
  facet normal -2.212910e-14 -2.325863e-15 -1.000000e+00
    outer loop
      vertex   -7.579588e+02 4.100653e+00 3.098300e+02
      vertex   -7.641407e+02 1.403767e+01 3.098300e+02
      vertex   -7.642106e+02 1.470299e+01 3.098300e+02
    endloop
  endfacet
  facet normal -1.305777e-14 3.023152e-15 -1.000000e+00
    outer loop
      vertex   -7.579588e+02 4.100653e+00 3.098300e+02
      vertex   -7.642106e+02 1.470299e+01 3.098300e+02
      vertex   -7.642257e+02 3.344043e+01 3.098300e+02
    endloop
  endfacet
  facet normal 9.359934e-15 3.041227e-15 -1.000000e+00
    outer loop
      vertex   -7.642257e+02 3.344043e+01 3.098300e+02
      vertex   -7.642106e+02 1.470299e+01 3.098300e+02
      vertex   -7.644173e+02 1.533923e+01 3.098300e+02
    endloop
  endfacet
  facet normal -9.990375e-15 3.246070e-15 -1.000000e+00
    outer loop
      vertex   -7.642257e+02 3.344043e+01 3.098300e+02
      vertex   -7.644173e+02 1.533923e+01 3.098300e+02
      vertex   -7.644324e+02 3.280419e+01 3.098300e+02
    endloop
  endfacet
  facet normal 5.645784e-15 3.259595e-15 -1.000000e+00
    outer loop
      vertex   -7.644324e+02 3.280419e+01 3.098300e+02
      vertex   -7.644173e+02 1.533923e+01 3.098300e+02
      vertex   -7.647518e+02 1.591858e+01 3.098300e+02
    endloop
  endfacet
  facet normal -6.028236e-15 3.480404e-15 -1.000000e+00
    outer loop
      vertex   -7.644324e+02 3.280419e+01 3.098300e+02
      vertex   -7.647518e+02 1.591858e+01 3.098300e+02
      vertex   -7.647669e+02 3.222484e+01 3.098300e+02
    endloop
  endfacet
  facet normal 3.875571e-15 3.489579e-15 -1.000000e+00
    outer loop
      vertex   -7.647669e+02 3.222484e+01 3.098300e+02
      vertex   -7.647518e+02 1.591858e+01 3.098300e+02
      vertex   -7.651995e+02 1.641574e+01 3.098300e+02
    endloop
  endfacet
  facet normal -4.118476e-15 3.708293e-15 -1.000000e+00
    outer loop
      vertex   -7.647669e+02 3.222484e+01 3.098300e+02
      vertex   -7.651995e+02 1.641574e+01 3.098300e+02
      vertex   -7.652146e+02 3.172769e+01 3.098300e+02
    endloop
  endfacet
  facet normal 2.699119e-15 3.715019e-15 -1.000000e+00
    outer loop
      vertex   -7.652146e+02 3.172769e+01 3.098300e+02
      vertex   -7.651995e+02 1.641574e+01 3.098300e+02
      vertex   -7.657407e+02 1.680895e+01 3.098300e+02
    endloop
  endfacet
  facet normal -2.841068e-15 3.910394e-15 -1.000000e+00
    outer loop
      vertex   -7.652146e+02 3.172769e+01 3.098300e+02
      vertex   -7.657407e+02 1.680895e+01 3.098300e+02
      vertex   -7.657558e+02 3.133447e+01 3.098300e+02
    endloop
  endfacet
  facet normal -9.131120e-14 3.818381e-15 -1.000000e+00
    outer loop
      vertex   -7.657558e+02 3.133447e+01 3.098300e+02
      vertex   -7.657407e+02 1.680895e+01 3.098300e+02
      vertex   -7.663518e+02 1.708105e+01 3.098300e+02
    endloop
  endfacet
  facet normal 0.000000e+00 0.000000e+00 -1.000000e+00
    outer loop
      vertex   -7.657558e+02 3.133447e+01 3.098300e+02
      vertex   -7.663518e+02 1.708105e+01 3.098300e+02
      vertex   -7.663669e+02 3.106237e+01 3.098300e+02
    endloop
  endfacet
  facet normal 0.000000e+00 -0.000000e+00 -1.000000e+00
    outer loop
      vertex   -7.663669e+02 3.106237e+01 3.098300e+02
      vertex   -7.663518e+02 1.708105e+01 3.098300e+02
      vertex   -7.670062e+02 1.722014e+01 3.098300e+02
    endloop
  endfacet
  facet normal 0.000000e+00 0.000000e+00 -1.000000e+00
    outer loop
      vertex   -7.663669e+02 3.106237e+01 3.098300e+02
      vertex   -7.670062e+02 1.722014e+01 3.098300e+02
      vertex   -7.670213e+02 3.092328e+01 3.098300e+02
    endloop
  endfacet
  facet normal 0.000000e+00 -0.000000e+00 -1.000000e+00
    outer loop
      vertex   -7.670213e+02 3.092328e+01 3.098300e+02
      vertex   -7.670062e+02 1.722014e+01 3.098300e+02
      vertex   -7.676752e+02 1.722014e+01 3.098300e+02
    endloop
  endfacet
  facet normal -0.000000e+00 0.000000e+00 -1.000000e+00
    outer loop
      vertex   -7.670213e+02 3.092328e+01 3.098300e+02
      vertex   -7.676752e+02 1.722014e+01 3.098300e+02
      vertex   -7.676903e+02 3.092328e+01 3.098300e+02
    endloop
  endfacet
  facet normal 0.000000e+00 -0.000000e+00 -1.000000e+00
    outer loop
      vertex   -7.676903e+02 3.092328e+01 3.098300e+02
      vertex   -7.676752e+02 1.722014e+01 3.098300e+02
      vertex   -7.683295e+02 1.708105e+01 3.098300e+02
    endloop
  endfacet
  facet normal -0.000000e+00 0.000000e+00 -1.000000e+00
    outer loop
      vertex   -7.676903e+02 3.092328e+01 3.098300e+02
      vertex   -7.683295e+02 1.708105e+01 3.098300e+02
      vertex   -7.683446e+02 3.106237e+01 3.098300e+02
    endloop
  endfacet
  facet normal 0.000000e+00 -0.000000e+00 -1.000000e+00
    outer loop
      vertex   -7.683446e+02 3.106237e+01 3.098300e+02
      vertex   -7.683295e+02 1.708105e+01 3.098300e+02
      vertex   -7.689407e+02 1.680895e+01 3.098300e+02
    endloop
  endfacet
  facet normal -9.131120e-14 3.818381e-15 -1.000000e+00
    outer loop
      vertex   -7.683446e+02 3.106237e+01 3.098300e+02
      vertex   -7.689407e+02 1.680895e+01 3.098300e+02
      vertex   -7.689558e+02 3.133447e+01 3.098300e+02
    endloop
  endfacet
  facet normal -2.841068e-15 3.910394e-15 -1.000000e+00
    outer loop
      vertex   -7.689558e+02 3.133447e+01 3.098300e+02
      vertex   -7.689407e+02 1.680895e+01 3.098300e+02
      vertex   -7.694819e+02 1.641574e+01 3.098300e+02
    endloop
  endfacet
  facet normal 2.699119e-15 3.715019e-15 -1.000000e+00
    outer loop
      vertex   -7.689558e+02 3.133447e+01 3.098300e+02
      vertex   -7.694819e+02 1.641574e+01 3.098300e+02
      vertex   -7.694970e+02 3.172769e+01 3.098300e+02
    endloop
  endfacet
  facet normal -4.118476e-15 3.708293e-15 -1.000000e+00
    outer loop
      vertex   -7.694970e+02 3.172769e+01 3.098300e+02
      vertex   -7.694819e+02 1.641574e+01 3.098300e+02
      vertex   -7.699295e+02 1.591858e+01 3.098300e+02
    endloop
  endfacet
  facet normal 3.875571e-15 3.489579e-15 -1.000000e+00
    outer loop
      vertex   -7.694970e+02 3.172769e+01 3.098300e+02
      vertex   -7.699295e+02 1.591858e+01 3.098300e+02
      vertex   -7.699446e+02 3.222484e+01 3.098300e+02
    endloop
  endfacet
  facet normal -6.028236e-15 3.480404e-15 -1.000000e+00
    outer loop
      vertex   -7.699446e+02 3.222484e+01 3.098300e+02
      vertex   -7.699295e+02 1.591858e+01 3.098300e+02
      vertex   -7.702640e+02 1.533923e+01 3.098300e+02
    endloop
  endfacet
  facet normal 5.645784e-15 3.259595e-15 -1.000000e+00
    outer loop
      vertex   -7.699446e+02 3.222484e+01 3.098300e+02
      vertex   -7.702640e+02 1.533923e+01 3.098300e+02
      vertex   -7.702791e+02 3.280419e+01 3.098300e+02
    endloop
  endfacet
  facet normal -9.990375e-15 3.246070e-15 -1.000000e+00
    outer loop
      vertex   -7.702791e+02 3.280419e+01 3.098300e+02
      vertex   -7.702640e+02 1.533923e+01 3.098300e+02
      vertex   -7.704707e+02 1.470299e+01 3.098300e+02
    endloop
  endfacet
  facet normal 9.359934e-15 3.041227e-15 -1.000000e+00
    outer loop
      vertex   -7.702791e+02 3.280419e+01 3.098300e+02
      vertex   -7.704707e+02 1.470299e+01 3.098300e+02
      vertex   -7.704859e+02 3.344043e+01 3.098300e+02
    endloop
  endfacet
  facet normal -1.979433e-14 3.017721e-15 -1.000000e+00
    outer loop
      vertex   -7.704859e+02 3.344043e+01 3.098300e+02
      vertex   -7.704707e+02 1.470299e+01 3.098300e+02
      vertex   -7.749588e+02 4.100653e+00 3.098300e+02
    endloop
  endfacet
  facet normal -0.000000e+00 0.000000e+00 -1.000000e+00
    outer loop
      vertex   -7.704859e+02 3.344043e+01 3.098300e+02
      vertex   -7.749588e+02 4.100653e+00 3.098300e+02
      vertex   -7.705558e+02 3.410575e+01 3.098300e+02
    endloop
  endfacet
  facet normal -7.747349e-15 1.136868e-15 -1.000000e+00
    outer loop
      vertex   -7.705558e+02 3.410575e+01 3.098300e+02
      vertex   -7.749588e+02 4.100653e+00 3.098300e+02
      vertex   -7.749588e+02 5.410065e+01 3.098300e+02
    endloop
  endfacet
  facet normal -8.738979e-15 9.185037e-16 -1.000000e+00
    outer loop
      vertex   -7.705558e+02 3.410575e+01 3.098300e+02
      vertex   -7.749588e+02 5.410065e+01 3.098300e+02
      vertex   -7.704859e+02 3.477107e+01 3.098300e+02
    endloop
  endfacet
  facet normal -5.286026e-15 1.717534e-15 -1.000000e+00
    outer loop
      vertex   -7.704859e+02 3.477107e+01 3.098300e+02
      vertex   -7.749588e+02 5.410065e+01 3.098300e+02
      vertex   -7.702791e+02 3.540731e+01 3.098300e+02
    endloop
  endfacet
  facet normal -3.673884e-15 2.121118e-15 -1.000000e+00
    outer loop
      vertex   -7.702791e+02 3.540731e+01 3.098300e+02
      vertex   -7.749588e+02 5.410065e+01 3.098300e+02
      vertex   -7.699446e+02 3.598666e+01 3.098300e+02
    endloop
  endfacet
  facet normal -2.665690e-15 2.400198e-15 -1.000000e+00
    outer loop
      vertex   -7.699446e+02 3.598666e+01 3.098300e+02
      vertex   -7.749588e+02 5.410065e+01 3.098300e+02
      vertex   -7.694970e+02 3.648382e+01 3.098300e+02
    endloop
  endfacet
  facet normal -1.913320e-15 2.633459e-15 -1.000000e+00
    outer loop
      vertex   -7.694970e+02 3.648382e+01 3.098300e+02
      vertex   -7.749588e+02 5.410065e+01 3.098300e+02
      vertex   -7.689558e+02 3.687703e+01 3.098300e+02
    endloop
  endfacet
  facet normal -8.178884e-14 -2.520596e-14 -1.000000e+00
    outer loop
      vertex   -7.689558e+02 3.687703e+01 3.098300e+02
      vertex   -7.749588e+02 5.410065e+01 3.098300e+02
      vertex   -7.683446e+02 3.714913e+01 3.098300e+02
    endloop
  endfacet
  facet normal -1.316356e-15 6.192968e-15 -1.000000e+00
    outer loop
      vertex   -7.683446e+02 3.714913e+01 3.098300e+02
      vertex   -7.749588e+02 5.410065e+01 3.098300e+02
      vertex   -7.676903e+02 3.728822e+01 3.098300e+02
    endloop
  endfacet
  facet normal 0.000000e+00 6.762070e-15 -1.000000e+00
    outer loop
      vertex   -7.676903e+02 3.728822e+01 3.098300e+02
      vertex   -7.749588e+02 5.410065e+01 3.098300e+02
      vertex   -7.670213e+02 3.728822e+01 3.098300e+02
    endloop
  endfacet
  facet normal 1.597651e-15 7.516357e-15 -1.000000e+00
    outer loop
      vertex   -7.670213e+02 3.728822e+01 3.098300e+02
      vertex   -7.749588e+02 5.410065e+01 3.098300e+02
      vertex   -7.663669e+02 3.714913e+01 3.098300e+02
    endloop
  endfacet
  facet normal 3.856164e-15 8.661085e-15 -1.000000e+00
    outer loop
      vertex   -7.663669e+02 3.714913e+01 3.098300e+02
      vertex   -7.749588e+02 5.410065e+01 3.098300e+02
      vertex   -7.657558e+02 3.687703e+01 3.098300e+02
    endloop
  endfacet
  facet normal 7.838717e-15 1.078907e-14 -1.000000e+00
    outer loop
      vertex   -7.657558e+02 3.687703e+01 3.098300e+02
      vertex   -7.749588e+02 5.410065e+01 3.098300e+02
      vertex   -7.652146e+02 3.648382e+01 3.098300e+02
    endloop
  endfacet
  facet normal -9.503396e-15 1.196772e-15 -1.000000e+00
    outer loop
      vertex   -7.652146e+02 3.648382e+01 3.098300e+02
      vertex   -7.749588e+02 5.410065e+01 3.098300e+02
      vertex   -7.579588e+02 9.410065e+01 3.098300e+02
    endloop
  endfacet
  facet normal 0.000000e+00 0.000000e+00 -1.000000e+00
    outer loop
      vertex   -7.652146e+02 3.648382e+01 3.098300e+02
      vertex   -7.579588e+02 9.410065e+01 3.098300e+02
      vertex   -7.647669e+02 3.598666e+01 3.098300e+02
    endloop
  endfacet
  facet normal 0.000000e+00 0.000000e+00 -1.000000e+00
    outer loop
      vertex   -7.647669e+02 3.598666e+01 3.098300e+02
      vertex   -7.579588e+02 9.410065e+01 3.098300e+02
      vertex   -7.644324e+02 3.540731e+01 3.098300e+02
    endloop
  endfacet
  facet normal 0.000000e+00 0.000000e+00 -1.000000e+00
    outer loop
      vertex   -7.644324e+02 3.540731e+01 3.098300e+02
      vertex   -7.579588e+02 9.410065e+01 3.098300e+02
      vertex   -7.642257e+02 3.477107e+01 3.098300e+02
    endloop
  endfacet
  facet normal 0.000000e+00 0.000000e+00 -1.000000e+00
    outer loop
      vertex   -7.642257e+02 3.477107e+01 3.098300e+02
      vertex   -7.579588e+02 9.410065e+01 3.098300e+02
      vertex   -7.641558e+02 3.410575e+01 3.098300e+02
    endloop
  endfacet
  facet normal -1.834401e-14 1.894781e-15 -1.000000e+00
    outer loop
      vertex   -7.641558e+02 3.410575e+01 3.098300e+02
      vertex   -7.579588e+02 9.410065e+01 3.098300e+02
      vertex   -7.579588e+02 4.100653e+00 3.098300e+02
    endloop
  endfacet
  facet normal -1.823731e-14 1.916818e-15 -1.000000e+00
    outer loop
      vertex   -7.641558e+02 3.410575e+01 3.098300e+02
      vertex   -7.579588e+02 4.100653e+00 3.098300e+02
      vertex   -7.642257e+02 3.344043e+01 3.098300e+02
    endloop
  endfacet
  facet normal -1.684889e-14 1.770889e-15 -1.000000e+00
    outer loop
      vertex   -7.704707e+02 1.470299e+01 3.098300e+02
      vertex   -7.705407e+02 1.403767e+01 3.098300e+02
      vertex   -7.749588e+02 4.100653e+00 3.098300e+02
    endloop
  endfacet
  facet normal -1.040599e-14 -1.093714e-15 -1.000000e+00
    outer loop
      vertex   -7.749588e+02 4.100653e+00 3.098300e+02
      vertex   -7.705407e+02 1.403767e+01 3.098300e+02
      vertex   -7.704707e+02 1.337235e+01 3.098300e+02
    endloop
  endfacet
  facet normal -7.578488e-15 -2.462400e-15 -1.000000e+00
    outer loop
      vertex   -7.749588e+02 4.100653e+00 3.098300e+02
      vertex   -7.704707e+02 1.337235e+01 3.098300e+02
      vertex   -7.702640e+02 1.273611e+01 3.098300e+02
    endloop
  endfacet
  facet normal -5.871961e-15 -3.390178e-15 -1.000000e+00
    outer loop
      vertex   -7.702640e+02 1.273611e+01 3.098300e+02
      vertex   -7.699295e+02 1.215676e+01 3.098300e+02
      vertex   -7.749588e+02 4.100653e+00 3.098300e+02
    endloop
  endfacet
  facet normal -4.627798e-15 -4.166888e-15 -1.000000e+00
    outer loop
      vertex   -7.749588e+02 4.100653e+00 3.098300e+02
      vertex   -7.699295e+02 1.215676e+01 3.098300e+02
      vertex   -7.694819e+02 1.165961e+01 3.098300e+02
    endloop
  endfacet
  facet normal -3.579350e-15 -4.926553e-15 -1.000000e+00
    outer loop
      vertex   -7.749588e+02 4.100653e+00 3.098300e+02
      vertex   -7.694819e+02 1.165961e+01 3.098300e+02
      vertex   -7.689407e+02 1.126639e+01 3.098300e+02
    endloop
  endfacet
  facet normal -2.570629e-15 -5.773727e-15 -1.000000e+00
    outer loop
      vertex   -7.689407e+02 1.126639e+01 3.098300e+02
      vertex   -7.683295e+02 1.099429e+01 3.098300e+02
      vertex   -7.749588e+02 4.100653e+00 3.098300e+02
    endloop
  endfacet
  facet normal -1.455236e-15 -6.846348e-15 -1.000000e+00
    outer loop
      vertex   -7.749588e+02 4.100653e+00 3.098300e+02
      vertex   -7.683295e+02 1.099429e+01 3.098300e+02
      vertex   -7.676752e+02 1.085520e+01 3.098300e+02
    endloop
  endfacet
  facet normal 0.000000e+00 -8.415576e-15 -1.000000e+00
    outer loop
      vertex   -7.749588e+02 4.100653e+00 3.098300e+02
      vertex   -7.676752e+02 1.085520e+01 3.098300e+02
      vertex   -7.670062e+02 1.085520e+01 3.098300e+02
    endloop
  endfacet
  facet normal -1.337492e-14 7.331716e-15 -1.000000e+00
    outer loop
      vertex   -7.749588e+02 4.100653e+00 3.098300e+02
      vertex   -7.670062e+02 1.085520e+01 3.098300e+02
      vertex   -7.579588e+02 4.100653e+00 3.098300e+02
    endloop
  endfacet
  facet normal -4.177102e-15 1.965172e-14 -1.000000e+00
    outer loop
      vertex   -7.579588e+02 4.100653e+00 3.098300e+02
      vertex   -7.670062e+02 1.085520e+01 3.098300e+02
      vertex   -7.663518e+02 1.099429e+01 3.098300e+02
    endloop
  endfacet
  facet normal -6.745822e-14 -5.739304e-14 -1.000000e+00
    outer loop
      vertex   -7.579588e+02 4.100653e+00 3.098300e+02
      vertex   -7.663518e+02 1.099429e+01 3.098300e+02
      vertex   -7.657407e+02 1.126639e+01 3.098300e+02
    endloop
  endfacet
  facet normal -6.443134e-15 8.868213e-15 -1.000000e+00
    outer loop
      vertex   -7.657407e+02 1.126639e+01 3.098300e+02
      vertex   -7.651995e+02 1.165961e+01 3.098300e+02
      vertex   -7.579588e+02 4.100653e+00 3.098300e+02
    endloop
  endfacet
  facet normal -8.093460e-15 7.287384e-15 -1.000000e+00
    outer loop
      vertex   -7.579588e+02 4.100653e+00 3.098300e+02
      vertex   -7.651995e+02 1.165961e+01 3.098300e+02
      vertex   -7.647518e+02 1.215676e+01 3.098300e+02
    endloop
  endfacet
  facet normal -9.934015e-15 5.735406e-15 -1.000000e+00
    outer loop
      vertex   -7.579588e+02 4.100653e+00 3.098300e+02
      vertex   -7.647518e+02 1.215676e+01 3.098300e+02
      vertex   -7.644173e+02 1.273611e+01 3.098300e+02
    endloop
  endfacet
  facet normal -1.227144e-14 3.987232e-15 -1.000000e+00
    outer loop
      vertex   -7.644173e+02 1.273611e+01 3.098300e+02
      vertex   -7.642106e+02 1.337235e+01 3.098300e+02
      vertex   -7.579588e+02 4.100653e+00 3.098300e+02
    endloop
  endfacet
  facet normal -1.295994e-14 1.706208e-15 -1.000000e+00
    outer loop
      vertex   -8.000270e+02 6.358302e+01 3.098300e+02
      vertex   -7.999588e+02 6.410065e+01 3.098300e+02
      vertex   -7.749588e+02 5.410065e+01 3.098300e+02
    endloop
  endfacet
  facet normal -1.440078e-14 -1.895899e-15 -1.000000e+00
    outer loop
      vertex   -7.749588e+02 5.410065e+01 3.098300e+02
      vertex   -7.999588e+02 6.410065e+01 3.098300e+02
      vertex   -8.000270e+02 6.461829e+01 3.098300e+02
    endloop
  endfacet
  facet normal -1.646713e-14 -6.820907e-15 -1.000000e+00
    outer loop
      vertex   -7.749588e+02 5.410065e+01 3.098300e+02
      vertex   -8.000270e+02 6.461829e+01 3.098300e+02
      vertex   -8.002268e+02 6.510065e+01 3.098300e+02
    endloop
  endfacet
  facet normal -1.243446e-14 2.442474e-15 -1.000000e+00
    outer loop
      vertex   -7.749588e+02 5.410065e+01 3.098300e+02
      vertex   -8.002268e+02 6.510065e+01 3.098300e+02
      vertex   -7.579588e+02 9.410065e+01 3.098300e+02
    endloop
  endfacet
  facet normal -7.048114e-15 -5.408208e-15 -1.000000e+00
    outer loop
      vertex   -7.579588e+02 9.410065e+01 3.098300e+02
      vertex   -8.002268e+02 6.510065e+01 3.098300e+02
      vertex   -8.005446e+02 6.551487e+01 3.098300e+02
    endloop
  endfacet
  facet normal -5.695768e-15 -7.422870e-15 -1.000000e+00
    outer loop
      vertex   -7.579588e+02 9.410065e+01 3.098300e+02
      vertex   -8.005446e+02 6.551487e+01 3.098300e+02
      vertex   -8.009588e+02 6.583270e+01 3.098300e+02
    endloop
  endfacet
  facet normal -4.087805e-15 -9.868835e-15 -1.000000e+00
    outer loop
      vertex   -8.009588e+02 6.583270e+01 3.098300e+02
      vertex   -8.014412e+02 6.603250e+01 3.098300e+02
      vertex   -7.579588e+02 9.410065e+01 3.098300e+02
    endloop
  endfacet
  facet normal -1.200917e-14 2.402718e-15 -1.000000e+00
    outer loop
      vertex   -7.579588e+02 9.410065e+01 3.098300e+02
      vertex   -8.014412e+02 6.603250e+01 3.098300e+02
      vertex   -8.289588e+02 9.410065e+01 3.098300e+02
    endloop
  endfacet
  facet normal 2.142942e-15 1.627726e-14 -1.000000e+00
    outer loop
      vertex   -8.289588e+02 9.410065e+01 3.098300e+02
      vertex   -8.014412e+02 6.603250e+01 3.098300e+02
      vertex   -8.019588e+02 6.610065e+01 3.098300e+02
    endloop
  endfacet
  facet normal -1.660139e-15 1.261001e-14 -1.000000e+00
    outer loop
      vertex   -8.289588e+02 9.410065e+01 3.098300e+02
      vertex   -8.019588e+02 6.610065e+01 3.098300e+02
      vertex   -8.024765e+02 6.603250e+01 3.098300e+02
    endloop
  endfacet
  facet normal -4.222022e-15 1.019286e-14 -1.000000e+00
    outer loop
      vertex   -8.024765e+02 6.603250e+01 3.098300e+02
      vertex   -8.029588e+02 6.583270e+01 3.098300e+02
      vertex   -8.289588e+02 9.410065e+01 3.098300e+02
    endloop
  endfacet
  facet normal -6.332066e-15 8.252109e-15 -1.000000e+00
    outer loop
      vertex   -8.289588e+02 9.410065e+01 3.098300e+02
      vertex   -8.029588e+02 6.583270e+01 3.098300e+02
      vertex   -8.033730e+02 6.551487e+01 3.098300e+02
    endloop
  endfacet
  facet normal -9.092495e-14 -6.746298e-14 -1.000000e+00
    outer loop
      vertex   -8.289588e+02 9.410065e+01 3.098300e+02
      vertex   -8.033730e+02 6.551487e+01 3.098300e+02
      vertex   -8.036909e+02 6.510065e+01 3.098300e+02
    endloop
  endfacet
  facet normal -9.148584e-15 3.789468e-15 -1.000000e+00
    outer loop
      vertex   -8.036909e+02 6.510065e+01 3.098300e+02
      vertex   -8.038907e+02 6.461829e+01 3.098300e+02
      vertex   -8.289588e+02 9.410065e+01 3.098300e+02
    endloop
  endfacet
  facet normal -1.193401e-14 1.421085e-15 -1.000000e+00
    outer loop
      vertex   -8.289588e+02 9.410065e+01 3.098300e+02
      vertex   -8.038907e+02 6.461829e+01 3.098300e+02
      vertex   -8.289588e+02 5.410065e+01 3.098300e+02
    endloop
  endfacet
  facet normal -1.200065e-14 1.579916e-15 -1.000000e+00
    outer loop
      vertex   -8.289588e+02 5.410065e+01 3.098300e+02
      vertex   -8.038907e+02 6.461829e+01 3.098300e+02
      vertex   -8.039588e+02 6.410065e+01 3.098300e+02
    endloop
  endfacet
  facet normal -1.079995e-14 -1.421840e-15 -1.000000e+00
    outer loop
      vertex   -8.289588e+02 5.410065e+01 3.098300e+02
      vertex   -8.039588e+02 6.410065e+01 3.098300e+02
      vertex   -8.038907e+02 6.358302e+01 3.098300e+02
    endloop
  endfacet
  facet normal -9.801985e-15 -4.060115e-15 -1.000000e+00
    outer loop
      vertex   -8.038907e+02 6.358302e+01 3.098300e+02
      vertex   -8.036909e+02 6.310065e+01 3.098300e+02
      vertex   -8.289588e+02 5.410065e+01 3.098300e+02
    endloop
  endfacet
  facet normal -4.722172e-14 1.009977e-13 -1.000000e+00
    outer loop
      vertex   -8.289588e+02 5.410065e+01 3.098300e+02
      vertex   -8.036909e+02 6.310065e+01 3.098300e+02
      vertex   -8.033730e+02 6.268644e+01 3.098300e+02
    endloop
  endfacet
  facet normal -9.274249e-15 -1.208644e-14 -1.000000e+00
    outer loop
      vertex   -8.289588e+02 5.410065e+01 3.098300e+02
      vertex   -8.033730e+02 6.268644e+01 3.098300e+02
      vertex   -8.029588e+02 6.236860e+01 3.098300e+02
    endloop
  endfacet
  facet normal -7.420716e-15 -1.791519e-14 -1.000000e+00
    outer loop
      vertex   -8.029588e+02 6.236860e+01 3.098300e+02
      vertex   -8.024765e+02 6.216880e+01 3.098300e+02
      vertex   -8.289588e+02 5.410065e+01 3.098300e+02
    endloop
  endfacet
  facet normal -3.886019e-15 -2.951725e-14 -1.000000e+00
    outer loop
      vertex   -8.289588e+02 5.410065e+01 3.098300e+02
      vertex   -8.024765e+02 6.216880e+01 3.098300e+02
      vertex   -8.019588e+02 6.210065e+01 3.098300e+02
    endloop
  endfacet
  facet normal -1.263187e-14 8.975484e-29 -1.000000e+00
    outer loop
      vertex   -8.289588e+02 5.410065e+01 3.098300e+02
      vertex   -8.019588e+02 6.210065e+01 3.098300e+02
      vertex   -7.749588e+02 5.410065e+01 3.098300e+02
    endloop
  endfacet
  facet normal -3.886019e-15 2.951725e-14 -1.000000e+00
    outer loop
      vertex   -7.749588e+02 5.410065e+01 3.098300e+02
      vertex   -8.019588e+02 6.210065e+01 3.098300e+02
      vertex   -8.014412e+02 6.216880e+01 3.098300e+02
    endloop
  endfacet
  facet normal -7.420716e-15 1.791519e-14 -1.000000e+00
    outer loop
      vertex   -7.749588e+02 5.410065e+01 3.098300e+02
      vertex   -8.014412e+02 6.216880e+01 3.098300e+02
      vertex   -8.009588e+02 6.236860e+01 3.098300e+02
    endloop
  endfacet
  facet normal -9.274249e-15 1.208644e-14 -1.000000e+00
    outer loop
      vertex   -8.009588e+02 6.236860e+01 3.098300e+02
      vertex   -8.005446e+02 6.268644e+01 3.098300e+02
      vertex   -7.749588e+02 5.410065e+01 3.098300e+02
    endloop
  endfacet
  facet normal -1.060054e-14 8.134078e-15 -1.000000e+00
    outer loop
      vertex   -7.749588e+02 5.410065e+01 3.098300e+02
      vertex   -8.005446e+02 6.268644e+01 3.098300e+02
      vertex   -8.002268e+02 6.310065e+01 3.098300e+02
    endloop
  endfacet
  facet normal -1.176238e-14 4.872138e-15 -1.000000e+00
    outer loop
      vertex   -7.749588e+02 5.410065e+01 3.098300e+02
      vertex   -8.002268e+02 6.310065e+01 3.098300e+02
      vertex   -8.000270e+02 6.358302e+01 3.098300e+02
    endloop
  endfacet
endsolid
